<svg width="30" height="30" viewBox="0 0 30 30" fill="none" xmlns="http://www.w3.org/2000/svg">
<rect width="30" height="30" rx="10" fill="white"/>
<path d="M14.5 7.71175C17.0366 7.71175 17.337 7.7214 18.3388 7.76711C19.265 7.80938 19.768 7.96414 20.1028 8.0942C20.5462 8.26654 20.8627 8.47244 21.1951 8.80486C21.5276 9.13727 21.7335 9.45377 21.9058 9.89717C22.0359 10.232 22.1906 10.735 22.2329 11.6612C22.2786 12.663 22.2883 12.9634 22.2883 15.5C22.2883 18.0366 22.2786 18.3371 22.2329 19.3388C22.1906 20.2651 22.0359 20.7681 21.9058 21.1029C21.7335 21.5463 21.5276 21.8628 21.1951 22.1952C20.8627 22.5276 20.5462 22.7335 20.1028 22.9058C19.768 23.0359 19.265 23.1907 18.3388 23.2329C17.3372 23.2786 17.0368 23.2883 14.5 23.2883C11.9632 23.2883 11.6628 23.2786 10.6612 23.2329C9.73494 23.1907 9.23193 23.0359 8.89717 22.9058C8.45374 22.7335 8.13723 22.5276 7.80482 22.1952C7.4724 21.8628 7.2665 21.5463 7.0942 21.1029C6.9641 20.7681 6.80934 20.2651 6.76707 19.3389C6.72136 18.3371 6.71171 18.0366 6.71171 15.5C6.71171 12.9634 6.72136 12.663 6.76707 11.6612C6.80934 10.735 6.9641 10.232 7.0942 9.89717C7.2665 9.45377 7.4724 9.13727 7.80482 8.80486C8.13723 8.47244 8.45374 8.26654 8.89717 8.0942C9.23193 7.96414 9.73494 7.80938 10.6611 7.76711C11.6629 7.7214 11.9634 7.71175 14.5 7.71175ZM14.5 6C11.9199 6 11.5964 6.01094 10.5832 6.05717C9.57196 6.10333 8.88141 6.2639 8.2771 6.49876C7.65239 6.74154 7.1226 7.06637 6.59447 7.5945C6.06633 8.12264 5.7415 8.65243 5.49872 9.27714C5.26386 9.88145 5.10329 10.572 5.05713 11.5832C5.0109 12.5964 5 12.92 5 15.5C5 18.0801 5.0109 18.4036 5.05713 19.4168C5.10329 20.428 5.26386 21.1186 5.49872 21.7229C5.7415 22.3476 6.06633 22.8774 6.59447 23.4055C7.1226 23.9337 7.65239 24.2585 8.2771 24.5013C8.88141 24.7361 9.57196 24.8967 10.5832 24.9429C11.5964 24.9891 11.9199 25 14.5 25C17.08 25 17.4036 24.9891 18.4168 24.9429C19.428 24.8967 20.1186 24.7361 20.7229 24.5013C21.3476 24.2585 21.8774 23.9337 22.4055 23.4055C22.9336 22.8774 23.2585 22.3476 23.5012 21.7229C23.7361 21.1186 23.8967 20.428 23.9428 19.4168C23.9891 18.4036 24 18.0801 24 15.5C24 12.92 23.9891 12.5964 23.9428 11.5832C23.8967 10.572 23.7361 9.88145 23.5012 9.27714C23.2585 8.65243 22.9336 8.12264 22.4055 7.5945C21.8774 7.06637 21.3476 6.74154 20.7229 6.49876C20.1186 6.2639 19.428 6.10333 18.4168 6.05717C17.4036 6.01094 17.08 6 14.5 6ZM14.5 10.6216C11.8057 10.6216 9.62159 12.8058 9.62159 15.5C9.62159 18.1943 11.8057 20.3784 14.5 20.3784C17.1942 20.3784 19.3784 18.1943 19.3784 15.5C19.3784 12.8058 17.1942 10.6216 14.5 10.6216ZM14.5 18.6667C12.7511 18.6667 11.3333 17.2489 11.3333 15.5C11.3333 13.7511 12.7511 12.3333 14.5 12.3333C16.2489 12.3333 17.6667 13.7511 17.6667 15.5C17.6667 17.2489 16.2489 18.6667 14.5 18.6667ZM20.7111 10.4289C20.7111 11.0585 20.2007 11.5689 19.5711 11.5689C18.9415 11.5689 18.4311 11.0585 18.4311 10.4289C18.4311 9.79928 18.9415 9.2889 19.5711 9.2889C20.2007 9.2889 20.7111 9.79928 20.7111 10.4289Z" fill="#0A0A08"/>
</svg>
