<svg width="30" height="30" viewBox="0 0 30 30" fill="none" xmlns="http://www.w3.org/2000/svg">
<rect width="30" height="30" rx="10" fill="white"/>
<path d="M10.9613 23.4491C18.1358 23.4491 22.0587 17.504 22.0587 12.3516C22.0587 12.1818 22.0587 12.0119 22.0507 11.8501C22.811 11.3001 23.4742 10.6126 24 9.82801C23.3044 10.1354 22.5521 10.3457 21.7595 10.4427C22.5683 9.95743 23.1831 9.19711 23.4742 8.2831C22.722 8.72797 21.8889 9.05151 20.9991 9.22946C20.2874 8.46914 19.2763 8 18.152 8C16.0004 8 14.2533 9.74713 14.2533 11.8987C14.2533 12.206 14.2857 12.5053 14.3584 12.7884C11.1149 12.6266 8.24351 11.0736 6.31843 8.71179C5.9868 9.28608 5.79268 9.95743 5.79268 10.6692C5.79268 12.02 6.4802 13.2171 7.53172 13.9127C6.89272 13.8966 6.29417 13.7186 5.76841 13.4274C5.76841 13.4436 5.76841 13.4598 5.76841 13.4759C5.76841 15.3687 7.11111 16.9378 8.89868 17.3018C8.57514 17.3908 8.22733 17.4393 7.87143 17.4393C7.62069 17.4393 7.37803 17.4151 7.13538 17.3665C7.62878 18.9195 9.06854 20.0438 10.7752 20.0762C9.44061 21.1196 7.75819 21.7424 5.93018 21.7424C5.61473 21.7424 5.30736 21.7263 5 21.6858C6.70668 22.802 8.76117 23.4491 10.9613 23.4491Z" fill="black"/>
</svg>
