<?xml version="1.0" encoding="UTF-8"?>
<svg width="3353px" height="700px" viewBox="0 0 3353 700" version="1.1" xmlns="http://www.w3.org/2000/svg" xmlns:xlink="http://www.w3.org/1999/xlink">
    <title>V3/Logo</title>
    <g id="V3/Logo" stroke="none" stroke-width="1" fill="none" fill-rule="evenodd">
        <g id="Group-3" fill="#FFFFFF" fill-rule="nonzero">
            <path d="M46.815,331.9 L99.465,308.11 L99.465,51.1 L0.405,94.78 L9.375,109.21 L46.815,94.78 L46.815,331.9 L46.815,331.9 Z M174.735,331.9 C188.775,325.27 249.615,296.02 277.695,282.37 L277.695,206.71 C270.538085,201.731277 256.181221,191.787071 240.369048,180.839204 L239.101079,179.961309 L239.101079,179.961309 L237.827554,179.079582 C236.551468,178.19609 235.26803,177.307526 233.98018,176.41592 L232.690968,175.523375 C231.830658,174.927768 230.968823,174.33111 230.106334,173.734002 L228.81222,172.838076 C228.596489,172.688723 228.380745,172.539362 228.165,172.39 L278.475,147.82 L278.475,85.03 C273.24734,81.3706383 264.827472,75.3755138 256.34631,69.3406317 L255.134636,68.4784831 C254.932734,68.3348292 254.730882,68.1912148 254.529121,68.0476708 L253.32,67.1875 C243.8625,60.46 234.795,54.025 230.505,51.1 C221.379,55.3588 200.547384,65.312224 179.142087,75.5313971 L176.670333,76.711403 C176.258161,76.9081642 175.845935,77.1049465 175.433734,77.3017112 L172.961467,78.4817803 C155.254812,86.933005 137.8878,95.209 127.155,100.24 C127.155,105.505 127.2525,118.4725 127.35,131.44 L127.361694,132.995607 C127.45125,144.914369 127.537506,156.572355 127.544538,161.971721 L127.545,162.64 L127.545,162.64 C134.328636,167.485455 149.674207,178.217239 166.268394,189.738192 L167.484725,190.582523 C167.89084,190.864387 168.297593,191.146646 168.704876,191.429227 L169.92821,192.27786 C171.152924,193.12731 172.381458,193.978989 173.610946,194.830898 L176.070348,196.534435 C176.275263,196.676324 176.480152,196.818182 176.685,196.96 L126.765,221.14 L126.765,297.97 C131.4801,301.3162 138.864555,306.501289 146.489252,311.859589 L147.66385,312.685085 C148.251769,313.098292 148.840373,313.512018 149.428555,313.925505 L150.604031,314.751937 C161.17236,322.182916 171.3654,329.3728 174.735,331.9 Z M225.825,170.44 L225.201999,170.007619 L225.201999,170.007619 L223.335436,168.711076 L223.335436,168.711076 L222.093876,167.847816 L222.093876,167.847816 L220.855297,166.985998 C203.53897,154.932892 187.282826,143.445217 179.805,138.46 L179.805,76.06 C184.095,79.1488 192.1602,84.88024 200.41265,90.7294662 L201.538808,91.527581 C211.678608,98.712916 221.8548,105.9028 225.435,108.43 C225.435,120.13 225.825,156.4 225.825,170.44 Z M225.045,306.94 C221.535,304.3075 213.365475,298.516 204.801075,292.479677 L203.657189,291.67364 C203.275364,291.404647 202.893133,291.135427 202.51087,290.866235 L201.364364,290.058999 C192.006579,283.471438 182.8548,277.0543 179.415,274.57 L179.415,198.91 C180.219124,199.472887 181.021921,200.03511 181.822654,200.596123 L183.022111,201.436667 C201.187603,214.169076 218.093351,226.133608 225.045,230.89 L225.045,306.94 Z M355.695,331.9 C364.2906,327.6022 387.97374,316.351012 411.906152,304.994867 L414.3822,303.82 C430.887,295.9888 447.267,288.22 458.655,282.76 L458.655,83.08 L458.655,83.08 C445.785,74.5 417.705,55.39 411.075,51.1 C402.5613,55.2418 377.75652,67.121863 353.160809,78.8906036 L350.660914,80.0867352 C334.424634,87.855121 318.5241,95.4586 307.725,100.63 L307.725,297.97 L307.725,297.97 C312.912,301.5268 320.07006,306.547816 327.337373,311.684843 L328.48548,312.49672 C328.676892,312.632128 328.868312,312.767567 329.059705,312.903013 L330.207482,313.715571 L330.207482,313.715571 L331.353004,314.527109 C336.881615,318.445175 342.274109,322.286165 346.70297,325.450838 L347.605264,326.095752 C351.157272,328.635232 354.0102,330.6832 355.695,331.9 Z M406.005,306.94 C402.0738,304.1008 392.0274,296.98096 381.824451,289.758385 L380.73095,288.984334 C373.076052,283.565896 365.4528,278.1736 360.375,274.57 L360.375,75.67 L360.375,75.67 C364.1658,78.1972 373.756524,84.818464 383.620186,91.6649015 L384.71699,92.4263469 L384.71699,92.4263469 L385.814357,93.1884662 L385.814357,93.1884662 L386.9106,93.95008 L386.9106,93.95008 L388.004035,94.710009 C394.916676,99.515068 401.559,104.1478 406.005,107.26 L406.005,306.94 L406.005,306.94 Z M535.875,331.9 C544.4706,327.6022 568.15374,316.351012 592.086152,304.994867 L594.5622,303.82 C611.067,295.9888 627.447,288.22 638.835,282.76 L638.835,83.08 L638.835,83.08 C625.965,74.5 597.885,55.39 591.255,51.1 C582.7413,55.2418 557.93652,67.121863 533.340809,78.8906036 L530.840914,80.0867352 C514.604634,87.855121 498.7041,95.4586 487.905,100.63 L487.905,297.97 L487.905,297.97 C493.092,301.5268 500.25006,306.547816 507.517373,311.684843 L508.66548,312.49672 C508.856892,312.632128 509.048312,312.767567 509.239705,312.903013 L510.387482,313.715571 L510.387482,313.715571 L511.533004,314.527109 C517.061615,318.445175 522.454109,322.286165 526.88297,325.450838 L527.785264,326.095752 C531.337272,328.635232 534.1902,330.6832 535.875,331.9 Z M586.185,306.94 C582.2538,304.1008 572.2074,296.98096 562.004451,289.758385 L560.91095,288.984334 C553.256052,283.565896 545.6328,278.1736 540.555,274.57 L540.555,75.67 L540.555,75.67 C544.3458,78.1972 553.936524,84.818464 563.800186,91.6649015 L564.89699,92.4263469 L564.89699,92.4263469 L565.994357,93.1884662 L565.994357,93.1884662 L567.0906,93.95008 L567.0906,93.95008 L568.184035,94.710009 C575.096676,99.515068 581.739,104.1478 586.185,107.26 L586.185,306.94 L586.185,306.94 Z M926.265,374.8 L976.965,307.33 L976.965,175.9 C962.145,166.15 923.535,140.41 916.125,135.34 L863.475,158.74 L863.475,81.13 C891.555,88.54 922.365,93.61 943.035,93.61 C946.155,93.61 949.275,93.61 952.005,93.22 C959.025,84.25 980.085,56.56 986.715,47.59 C979.305,48.37 971.505,48.76 962.925,48.76 C928.995,48.76 889.215,41.74 863.475,33.16 L863.475,0.4 L853.725,4.69 L853.725,35.11 C849.754091,38.0881818 844.648636,41.8914876 839.421289,45.7698047 L838.299646,46.6017474 C837.738261,47.0180194 837.176307,47.4345375 836.615029,47.850379 L835.493745,48.6808866 C827.65624,54.4842975 820.114091,60.0345455 816.285,62.8 C706.695,143.92 843.195,201.25 782.355,263.26 C772.605,273.01 757.785,282.76 736.335,292.9 C785.085,300.7 827.205,312.01 853.335,328.78 L853.335,351.4 L863.475,347.11 L863.475,327.61 L897.405,302.65 C887.655,294.07 875.955,287.44 863.475,282.37 L863.475,161.08 C873.225,168.1 911.835,194.23 926.265,204.37 L926.265,374.8 Z M853.335,278.47 C834.225,271.84 813.945,267.55 795.615,264.82 C827.985,249.22 838.125,230.5 838.125,210.61 C838.125,161.47 776.115,104.14 819.795,66.7 C829.155,70.99 840.855,74.89 853.725,78.4 L853.335,278.47 Z M1143.105,331.9 L1197.705,307.72 L1162.995,283.54 L1162.995,160.69 L1117.365,129.1 L1015.965,177.46 L1015.965,299.14 C1020.76242,302.645806 1029.48825,308.857849 1038.17747,315.05018 L1039.36176,315.894211 C1048.63112,322.500815 1057.65306,328.943548 1061.595,331.9 C1064.6526,330.3712 1075.65996,325.17328 1087.28862,319.662262 L1088.5366,319.07075 C1088.74488,318.972016 1088.95327,318.873221 1089.16174,318.774383 L1090.41309,318.180997 C1098.5482,314.322661 1106.6673,310.4578 1112.295,307.72 L1143.105,331.9 Z M1112.295,306.94 C1109.53714,304.917571 1104.2657,301.248308 1099.05492,297.648385 L1098.10875,296.995 C1092.6,293.1925 1087.335,289.585 1085.385,288.22 C1082.265,285.88 1070.955,277.69 1066.665,274.57 L1066.665,153.67 L1112.295,185.26 L1112.295,306.94 Z M1214.865,429.4 L1265.565,406 L1265.565,329.56 C1275.3111,324.9736 1293.29743,316.360723 1311.72387,307.529667 L1313.98183,306.447482 C1332.4312,297.60496 1351.0023,288.6997 1361.895,283.54 L1361.895,160.69 C1357.5192,157.6402 1351.56546,153.508384 1345.36736,149.214266 L1344.27132,148.454982 C1344.08831,148.328217 1343.90516,148.201358 1343.7219,148.074428 L1342.6213,147.312197 C1331.42399,139.558084 1320.0714,131.7169 1316.265,129.1 C1308.41273,132.839175 1288.73002,142.314322 1268.21574,152.026005 L1266.8912,152.652838 C1266.44937,152.861856 1266.00727,153.070928 1265.565,153.28 L1234.755,129.1 L1180.155,153.28 L1214.865,177.46 L1214.865,429.4 Z M1311.195,307.33 C1307.3886,304.4752 1295.89089,296.250997 1284.66891,288.234314 L1283.56628,287.446654 C1276.77567,282.595966 1270.1826,277.8889 1265.565,274.57 L1265.565,153.67 C1269.1452,156.1972 1278.75277,162.818464 1288.6765,169.664902 L1291.98828,171.95008 C1299.339,177.0232 1306.515,181.984 1311.195,185.26 L1311.195,307.33 Z M1398.555,429.4 L1449.255,406 L1449.255,329.56 C1459.0011,324.9736 1476.98743,316.360723 1495.41387,307.529667 L1497.67183,306.447482 C1516.1212,297.60496 1534.6923,288.6997 1545.585,283.54 L1545.585,160.69 C1541.2092,157.6402 1535.25546,153.508384 1529.05736,149.214266 L1527.96132,148.454982 C1527.77831,148.328217 1527.59516,148.201358 1527.4119,148.074428 L1526.3113,147.312197 C1515.11399,139.558084 1503.7614,131.7169 1499.955,129.1 C1492.10273,132.839175 1472.42002,142.314322 1451.90574,152.026005 L1450.5812,152.652838 C1450.13937,152.861856 1449.69727,153.070928 1449.255,153.28 L1418.445,129.1 L1363.845,153.28 L1398.555,177.46 L1398.555,429.4 Z M1494.885,307.33 C1491.0786,304.4752 1479.58089,296.250997 1468.35891,288.234314 L1467.25628,287.446654 C1460.46567,282.595966 1453.8726,277.8889 1449.255,274.57 L1449.255,153.67 C1452.8352,156.1972 1462.44277,162.818464 1472.3665,169.664902 L1475.67828,171.95008 C1483.029,177.0232 1490.205,181.984 1494.885,185.26 L1494.885,307.33 Z M1649.715,429.4 C1658.8878,425.2504 1681.14713,414.9856 1703.27437,404.769722 L1705.64404,403.675631 C1722.21974,396.02224 1738.4556,388.5202 1748.775,383.77 C1737.543,357.9364 1737.09372,338.213008 1737.07575,302.171766 L1737.075,150.16 L1705.485,129.1 L1651.665,153.28 C1654.25895,155.075814 1661.54894,160.138432 1668.93863,165.28177 L1669.94651,165.983335 C1670.28238,166.217157 1670.61803,166.450847 1670.95303,166.684106 L1671.9556,167.382287 C1677.95404,171.560011 1683.59965,175.50093 1686.375,177.46 L1686.375,306.94 C1684.1013,305.2864 1673.50172,297.607495 1662.9372,289.999798 L1661.74182,289.139181 C1652.7843,282.69175 1644.0795,276.4615 1640.745,274.18 L1640.745,153.28 C1637.7264,151.2676 1631.31858,146.947648 1624.71535,142.490685 L1623.79302,141.868112 C1615.3326,136.15705 1606.7955,130.387 1604.865,129.1 L1555.335,153.28 C1558.19795,155.300909 1564.18796,159.430759 1570.44737,163.753984 L1571.43752,164.437926 L1571.43752,164.437926 L1572.92567,165.4662 C1580.36349,170.606798 1587.65182,175.665114 1590.045,177.46 L1590.045,299.14 C1593.399,301.611368 1601.06767,307.118989 1609.32594,313.022753 L1610.48171,313.848839 C1611.64055,314.676965 1612.8075,315.510413 1613.97244,316.342011 L1615.13632,317.172726 C1623.2736,322.979695 1631.14689,328.578842 1635.285,331.51 C1623.975,336.97 1596.285,350.62 1590.825,353.35 C1600.575,366.22 1635.675,411.46 1649.715,429.4 Z M1699.245,406 C1694.0736,399.8341 1680.98996,384.437251 1667.75416,368.914618 L1666.19677,367.088394 C1653.99907,352.787035 1641.9306,338.6821 1636.065,331.9 C1645.035,327.61 1678.185,311.62 1686.375,307.72 L1686.375,314.35 C1686.375,354.13 1689.885,375.97 1699.245,406 Z M1982.775,351.4 L1992.525,347.11 L1992.525,329.56 C2064.285,298.75 2120.055,263.26 2120.445,210.61 C2120.445,184.09 2114.205,150.94 2049.855,114.28 L2074.815,102.19 C2068.575,74.89 2056.875,47.98 2034.645,31.6 L1992.525,51.88 L1992.525,0.4 L1982.775,4.69 L1982.775,56.56 L1934.025,79.57 C1934.025,63.19 1939.095,48.76 1954.305,38.23 L1950.015,31.21 C1948.845,31.99 1939.095,39.01 1935.585,41.35 C1816.635,124.03 1997.985,224.65 1854.075,292.9 C1903.995,300.7 1949.625,312.79 1982.775,329.95 L1982.775,351.4 Z M1992.525,138.85 L1992.525,62.8 C2009.295,76.84 2019.825,100.63 2026.065,122.86 L1992.525,138.85 Z M1982.775,281.59 C1958.595,273.4 1932.075,267.55 1913.355,264.82 C1995.645,225.43 1941.825,147.43 1934.805,89.71 L1982.775,67.48 L1982.775,281.59 Z M2029.965,304.6 C2020.215,297.19 2006.955,290.56 1992.525,285.1 L1992.525,141.19 C2067.405,176.68 2073.255,219.97 2073.255,234.01 C2073.255,264.04 2065.845,285.49 2029.965,304.6 Z M2369.635,331.9 L2414.095,291.73 C2408.7247,290.3377 2394.52921,286.91662 2379.83768,283.380914 L2378.10748,282.964535 C2377.53031,282.825643 2376.95289,282.68669 2376.37571,282.547791 L2374.6454,282.131375 C2362.25721,279.149887 2350.213,276.247 2343.505,274.57 L2343.505,153.67 C2345.46397,155.835172 2347.80453,158.381946 2350.22405,160.99326 L2350.85682,161.675728 C2351.1739,162.017485 2351.49188,162.359872 2351.81008,162.702184 L2352.76469,163.728192 C2352.87068,163.842011 2352.97662,163.955744 2353.08249,164.069365 L2353.7166,164.74953 C2359.30652,170.742045 2364.54707,176.272069 2365.735,177.46 C2368.6015,180.3265 2377.7106,190.215925 2382.86605,195.869919 L2383.47688,196.540311 C2384.3614,197.51185 2385.0985,198.325 2385.625,198.91 C2385.625,198.91 2409.97114,186.549652 2434.43714,174.309162 L2435.935,173.56 L2435.935,173.56 C2431.3486,168.7825 2422.82936,159.697606 2414.55265,150.847746 L2413.54067,149.765573 C2405.29071,140.942467 2397.4537,132.5398 2394.205,129.1 C2390.89,130.66 2380.6525,135.535 2370.025,140.605 L2368.74825,141.214136 C2358.52593,146.09152 2348.185,151.0336 2343.505,153.28 C2340.65339,151.267097 2334.6273,147.017634 2328.34366,142.61069 L2327.39955,141.948727 C2319.36437,136.31642 2311.14758,130.597097 2308.795,129.1 L2258.095,153.28 C2258.2588,153.397 2258.49842,153.565948 2258.80593,153.781453 L2259.13578,154.012276 C2261.83367,155.897842 2268.36728,160.414273 2275.16826,165.132063 L2276.05657,165.748369 C2282.57764,170.273392 2289.2014,174.886 2292.805,177.46 L2292.805,270.28 L2258.095,287.44 C2281.885,296.8 2352.865,325.27 2369.635,331.9 Z M2196.535,94 L2196.80605,93.7283288 C2200.86232,89.6551595 2219.11768,71.0448405 2223.17395,66.9716712 L2223.445,66.7 L2223.445,66.7 L2223.31437,66.5693696 L2223.31437,66.5693696 L2196.66563,39.9206304 C2196.61986,39.8748554 2196.57629,39.8312941 2196.535,39.79 L2196.26333,40.0610482 C2192.19016,44.1173239 2173.57984,62.3726761 2169.50667,66.4289518 L2169.235,66.7 L2169.235,66.7 L2169.36419,66.8291915 L2169.36419,66.8291915 L2196.40581,93.8708085 C2196.4511,93.9161047 2196.49419,93.959186 2196.535,94 Z M2206.285,331.9 L2260.105,307.72 C2255.035,304.21 2233.195,289 2225.395,283.54 L2225.395,153.28 C2222.41397,150.926552 2217.47623,147.05824 2212.38469,143.071671 L2211.51069,142.387361 C2204.22035,136.679469 2196.82638,130.893103 2194.585,129.1 L2139.985,153.28 C2140.1488,153.397 2140.38842,153.565948 2140.69593,153.781453 L2141.02578,154.012276 C2143.72367,155.897842 2150.25728,160.414273 2157.05826,165.132063 L2157.94657,165.748369 C2164.46764,170.273392 2171.0914,174.886 2174.695,177.46 L2174.695,270.28 L2139.985,287.44 C2154.025,296.8 2196.145,325.27 2206.285,331.9 Z M2535.015,331.9 C2539.31296,328.079592 2546.27481,321.855185 2553.51379,315.348346 L2554.60141,314.370466 C2555.14597,313.880733 2555.69141,313.390008 2556.23673,312.899185 L2557.32692,311.917676 C2566.58709,303.57826 2575.61878,295.383265 2579.475,291.73 C2572.0962,289.8853 2559.02063,286.670491 2546.07775,283.511929 L2544.27321,283.071707 C2527.75028,279.042325 2511.888,275.2135 2508.885,274.57 L2508.885,166.15 L2561.925,172.78 L2578.695,133 L2508.885,133 L2508.885,56.17 L2458.185,79.96 L2458.185,133 L2420.355,156.4 L2458.185,161.08 L2458.185,270.28 C2457.16293,270.817931 2455.84407,271.489417 2454.31848,272.253522 L2453.53888,272.643104 C2450.35489,274.230786 2446.40402,276.161652 2442.40676,278.10821 L2441.40689,278.594987 C2433.57357,282.407665 2425.79259,286.175862 2423.475,287.44 L2535.015,331.9 Z M2736.645,331.9 L2786.175,307.72 C2783.39965,305.76093 2777.75404,301.820011 2771.7556,297.642287 L2770.75303,296.944106 C2770.41803,296.710847 2770.08238,296.477157 2769.74651,296.243335 L2768.73863,295.54177 C2761.34894,290.398432 2754.05895,285.335814 2751.465,283.54 L2751.465,156.79 C2748.891,155.152 2739.0162,148.4596 2728.74828,141.59872 L2727.72043,140.912251 C2727.20611,140.568917 2726.69138,140.225569 2726.17711,139.882817 L2725.14942,139.198291 C2719.50333,135.439762 2713.9821,131.8027 2709.735,129.1 C2704.95949,131.089796 2693.68669,136.023678 2682.3393,141.052864 L2680.97766,141.656642 L2680.97766,141.656642 L2679.61778,142.26024 C2669.65775,146.683299 2660.03786,151.003673 2655.135,153.28 L2655.135,55.78 C2652.15397,53.4265517 2647.21623,49.5582402 2642.12469,45.5716707 L2641.25069,44.8873609 C2633.96035,39.1794689 2626.56638,33.3931034 2624.325,31.6 L2569.725,55.78 C2569.8888,55.897 2570.12842,56.065948 2570.43593,56.2814526 L2570.76578,56.5122765 C2573.46367,58.3978422 2579.99728,62.9142731 2586.79826,67.6320626 L2587.68657,68.2483686 C2594.20764,72.773392 2600.8314,77.386 2604.435,79.96 L2604.435,270.28 L2569.725,287.44 C2576.1834,291.925 2588.58353,300.288628 2601.07938,308.658858 L2602.70934,309.750346 L2602.70934,309.750346 L2604.3375,310.84 C2617.89,319.9075 2630.955,328.585 2636.025,331.9 L2689.845,307.72 C2684.775,304.21 2662.935,289 2655.135,283.54 L2655.135,153.67 C2657.9588,155.595316 2661.33176,157.900822 2664.66996,160.183334 L2665.43943,160.709476 C2671.97018,165.175094 2678.19437,169.432911 2679.705,170.44 C2681.52268,171.85375 2685.7459,174.83633 2690.09985,177.871204 L2691.45276,178.813061 C2695.05827,181.320204 2698.59214,183.755714 2700.765,185.26 L2700.765,307.72 C2703.7836,309.7324 2710.19142,314.052352 2716.79465,318.509315 L2717.71698,319.131887 C2726.1774,324.84295 2734.7145,330.613 2736.645,331.9 Z M2923.065,331.9 L2977.665,307.72 C2974.545,305.517647 2968.3158,301.156125 2961.82241,296.626949 L2960.6025,295.77625 L2960.6025,295.77625 L2959.38056,294.924539 L2959.38056,294.924539 L2958.16077,294.074733 C2952.68278,290.259269 2947.39648,286.590286 2944.01082,284.264042 L2943.29043,283.769688 C2943.17581,283.691142 2943.06397,283.614559 2942.955,283.54 L2942.955,55.78 C2940.16,53.544 2933.80396,48.5481963 2927.54487,43.6424077 L2926.6725,42.95875 C2920.14,37.84 2913.9,32.965 2912.145,31.6 L2857.545,55.78 C2863.785,60.07 2884.065,74.5 2892.255,79.96 L2892.255,131.44 C2882.5089,136.0264 2864.24165,144.732916 2845.66633,153.613601 L2842.25296,155.2458 C2824.04993,163.951648 2806.0338,172.5928 2795.925,177.46 L2795.925,299.14 C2800.566,302.416 2806.78358,306.8386 2813.17314,311.404525 L2814.26992,312.188472 C2814.45291,312.319301 2814.63597,312.450201 2814.81908,312.581147 L2815.91796,313.3672 C2816.83368,314.0224 2817.74882,314.6776 2818.65927,315.329875 L2819.74931,316.111014 C2829.3535,322.995364 2838.2478,329.4196 2841.555,331.9 C2848.79438,328.609375 2864.91844,320.876406 2882.665,312.449321 L2883.98241,311.82388 C2885.52261,311.092848 2887.07358,310.357324 2888.63065,309.619727 L2889.96666,308.987049 L2889.96666,308.987049 L2891.30499,308.353694 L2891.30499,308.353694 L2892.645,307.72 L2892.645,307.72 C2894.5681,309.293448 2900.09627,313.688252 2905.96225,318.339788 L2906.86693,319.057089 C2907.01801,319.176861 2907.1692,319.296716 2907.32044,319.41661 L2908.22816,320.136096 L2908.22816,320.136096 L2909.1346,320.854445 C2915.31823,325.75455 2921.22707,330.429655 2923.065,331.9 Z M2892.255,306.94 C2888.6748,304.2022 2879.06723,297.256612 2869.1435,290.094948 L2867.4876,288.900022 C2867.3035,288.767182 2867.11941,288.634344 2866.93535,288.501533 L2865.83172,287.7052 C2858.481,282.4012 2851.305,277.222 2846.625,273.79 L2846.625,153.67 C2850.4704,156.1582 2861.13799,163.500652 2871.77934,170.903454 L2872.8798,171.66928 C2880.2118,176.7736 2887.419,181.828 2892.255,185.26 L2892.255,306.94 Z M3114.555,331.9 L3169.155,307.72 L3134.445,283.54 L3134.445,160.69 L3088.815,129.1 L2987.415,177.46 L2987.415,299.14 C2992.21242,302.645806 3000.93825,308.857849 3009.62747,315.05018 L3010.81176,315.894211 C3020.08112,322.500815 3029.10306,328.943548 3033.045,331.9 C3036.1026,330.3712 3047.10996,325.17328 3058.73862,319.662262 L3059.9866,319.07075 C3060.19488,318.972016 3060.40327,318.873221 3060.61174,318.774383 L3061.86309,318.180997 C3069.9982,314.322661 3078.1173,310.4578 3083.745,307.72 L3114.555,331.9 Z M3083.745,306.94 C3080.98714,304.917571 3075.7157,301.248308 3070.50492,297.648385 L3069.55875,296.995 C3064.05,293.1925 3058.785,289.585 3056.835,288.22 C3053.715,285.88 3042.405,277.69 3038.115,274.57 L3038.115,153.67 L3083.745,185.26 L3083.745,306.94 Z M3253.785,429.4 C3262.9578,425.2504 3285.21713,414.9856 3307.34437,404.769722 L3309.71404,403.675631 C3326.28974,396.02224 3342.5256,388.5202 3352.845,383.77 C3341.613,357.9364 3341.16372,338.213008 3341.14575,302.171766 L3341.14501,298.744409 C3341.145,298.358128 3341.145,297.97 3341.145,297.58 L3341.145,150.16 L3309.555,129.1 L3255.735,153.28 C3258.32895,155.075814 3265.61894,160.138432 3273.00863,165.28177 L3274.01651,165.983335 C3274.35238,166.217157 3274.68803,166.450847 3275.02303,166.684106 L3276.0256,167.382287 C3282.02404,171.560011 3287.66965,175.50093 3290.445,177.46 L3290.445,306.94 C3288.1713,305.2864 3277.57172,297.607495 3267.0072,289.999798 L3265.81182,289.139181 C3256.8543,282.69175 3248.1495,276.4615 3244.815,274.18 L3244.815,153.28 C3241.7964,151.2676 3235.38858,146.947648 3228.78535,142.490685 L3227.86302,141.868112 C3219.4026,136.15705 3210.8655,130.387 3208.935,129.1 L3159.405,153.28 C3162.26795,155.300909 3168.25796,159.430759 3174.51737,163.753984 L3175.50752,164.437926 L3175.50752,164.437926 L3176.99567,165.4662 C3184.43349,170.606798 3191.72182,175.665114 3194.115,177.46 L3194.115,299.14 C3197.469,301.611368 3205.13767,307.118989 3213.39594,313.022753 L3214.55171,313.848839 C3215.71055,314.676965 3216.8775,315.510413 3218.04244,316.342011 L3219.20632,317.172726 C3227.3436,322.979695 3235.21689,328.578842 3239.355,331.51 C3228.045,336.97 3200.355,350.62 3194.895,353.35 C3204.645,366.22 3239.745,411.46 3253.785,429.4 Z M3303.315,406 C3298.1436,399.8341 3285.05996,384.437251 3271.82416,368.914618 L3270.26677,367.088394 C3258.06907,352.787035 3246.0006,338.6821 3240.135,331.9 C3249.105,327.61 3282.255,311.62 3290.445,307.72 L3290.445,314.35 C3290.445,354.13 3293.955,375.97 3303.315,406 Z" id="1800HappyBrithday"></path>
        </g>
        <path d="M403.218716,577 C404.697859,577 408.081961,575.342 413.371021,572.025999 C495.037688,519.597337 554.696487,477.206299 592.34742,444.852885 C594.588547,449.961319 597.860593,454.083915 602.163557,457.220672 C606.46652,460.35743 610.747073,461.925808 615.005214,461.925808 C619.263355,461.925808 622.512989,461.432889 624.754116,460.447051 C626.009147,459.8197 626.636663,459.147538 626.636663,458.430564 C626.636663,457.713591 626.188438,457.355105 625.291987,457.355105 C624.395536,457.355105 623.140505,457.66878 621.526894,458.296132 C620.540798,458.654618 619.128888,458.833862 617.291164,458.833862 C615.453439,458.833862 613.548482,458.475375 611.57629,457.758402 C604.494329,455.159374 599.563849,449.602832 596.784852,441.088776 C629.594951,412.499472 646,390.766223 646,375.88903 C646,368.629677 642.459019,365 635.377058,365 C632.23948,365 628.87779,365.896216 625.291987,367.688649 C617.94109,371.273515 611.172887,377.367787 604.987377,385.971465 C594.678192,400.221306 589.5236,415.188121 589.5236,430.871909 L589.5236,430.871909 L589.5236,432.619531 C589.5236,433.157261 589.568423,433.739801 589.658068,434.367153 C579.797109,443.150074 561.957739,458.027267 536.139956,478.998732 L536.139956,478.998732 L507.363886,501.314521 L478.991218,522.554851 L452.635565,541.644261 L429.507135,557.507292 L447.660263,539.762207 C476.436334,510.276686 505.705452,468.064891 535.467618,413.126823 C536.901939,410.617417 538.85172,407.615092 541.316959,404.119848 C543.782199,400.624604 547.928284,396.994927 553.755214,393.230818 C554.651665,392.603466 555.458471,392.110547 556.175631,391.752061 C556.892792,391.393574 557.20655,390.855844 557.116905,390.138871 C557.116905,389.242655 556.377333,388.794547 554.898189,388.794547 C553.419045,388.794547 549.63154,391.348763 543.535675,396.457197 L543.535675,396.457197 L540.039517,399.549144 C523.186242,415.232932 508.484449,426.480448 495.934138,433.291693 C490.286498,436.249207 485.423253,438.2881 481.344402,439.40837 C477.265551,440.528641 473.455635,441.088776 469.914654,441.088776 C466.373674,441.088776 464.603183,439.520397 464.603183,436.38364 C464.603183,434.680829 466.575375,431.723314 470.519759,427.511097 L470.519759,427.511097 L475.763996,421.999366 C477.915477,419.848446 479.932492,417.518284 481.815038,415.008878 C493.468899,399.145847 494.051592,388.122384 483.563117,381.938491 C481.411636,380.683788 478.83434,379.742761 475.831229,379.115409 C472.828119,378.488057 468.816502,378.174382 463.796378,378.174382 C458.776253,378.174382 452.72521,379.429085 445.643249,381.938491 C442.416026,383.103572 439.323271,384.492708 436.364984,386.105897 C433.406696,387.719087 430.784577,389.399493 428.498628,391.147115 C426.212678,392.894737 425.114526,394.44071 425.204171,395.785035 C425.204171,396.681251 425.607574,397.12936 426.41438,397.12936 C427.221186,397.12936 428.431394,396.412386 430.045005,394.97844 C441.340285,385.657789 452.54592,380.997464 463.66191,380.997464 C469.48884,380.997464 473.791804,381.669626 476.570801,383.013951 C478.094768,383.641302 479.304976,384.515113 480.201427,385.635384 C481.097878,386.755654 481.613337,388.503276 481.747805,390.87825 C481.882272,393.253223 478.767106,397.891144 472.402305,404.79201 L472.402305,404.79201 L465.678924,412.051363 C462.810282,415.008878 460.345042,418.235257 458.283205,421.730501 C454.697402,427.645529 454.159532,432.888396 456.669594,437.4591 C459.358946,442.209047 464.065313,444.58402 470.788694,444.58402 C481.815038,444.58402 496.068606,438.355316 513.549396,425.897907 C505.929565,434.322342 497.816685,444.404777 489.210757,456.145212 L489.210757,456.145212 L476.974204,473.487001 C473.298756,479.133164 462.810282,495.668358 445.508782,523.092581 C440.219722,531.427394 435.334065,538.776369 430.851811,545.139505 C426.369557,551.502642 422.201061,556.879941 418.346323,561.271401 C414.491584,565.662862 411.533297,568.575565 409.47146,570.009512 C407.409623,571.443458 405.952891,572.339674 405.101262,572.698161 C404.249634,573.056648 403.353183,573.459945 402.41191,573.908053 C401.470637,574.356161 401,574.983513 401,575.790108 C401,576.596703 401.739572,577 403.218716,577 Z M595,429 L595,427.528509 C595,412.635234 599.488889,398.856725 608.466667,386.192982 C612.377778,380.663743 616.733333,376.249269 621.533333,372.949561 C626.333333,369.649854 631,368 635.533333,368 C636.6,368 637.777778,368.512792 639.066667,369.538377 C640.355556,370.563962 641,372.013158 641,373.885965 C641,380.842105 631.888889,393.372076 613.666667,411.475877 L613.666667,411.475877 L595,429 Z M573.945225,571 C577.849343,571 581.865649,570.375061 585.994142,569.125182 C598.379621,565.196992 609.912477,557.206696 620.592709,545.154294 C622.118456,547.832606 624.541702,549.171761 627.862446,549.171761 C634.952684,549.171761 643.11992,544.931101 652.364155,536.449782 C656.701184,532.216999 659.061038,529.913868 659.443718,529.540387 L659.499268,529.486172 C661.743014,527.254246 663.762386,525.156235 665.557383,523.19214 C667.352379,521.228045 668.833252,519.710335 670,518.63901 L670,518.63901 L667.038255,516.362445 C666.410006,516.987385 665.377883,518.147986 663.941885,519.84425 L663.941885,519.84425 L658.826144,525.468705 C656.761897,527.611354 654.495714,529.865599 652.027593,532.231441 C649.559472,534.597283 647.046476,536.739932 644.488606,538.659389 C641.930735,540.578845 639.372864,542.185832 636.814994,543.480349 C634.257123,544.774867 631.564627,545.422125 628.737507,545.422125 C625.910387,545.422125 624.182702,544.127608 623.554454,541.538574 C629.477944,534.217855 634.055186,526.450752 637.28618,518.237263 C638.901678,514.219796 640.113301,510.202329 640.921049,506.184862 C641.728798,502.167394 641.998047,497.859777 641.728798,493.262009 C641.459548,488.664241 639.597239,485.137797 636.14187,482.682678 C632.686501,480.227559 628.580445,479 623.823703,479 C612.784472,479 601.475991,482.883552 589.89826,490.650655 C584.782519,494.13246 580.00334,498.082969 575.560722,502.502183 C571.118105,506.921397 567.124236,511.720039 563.579117,516.898108 C560.033998,522.076177 557.139566,527.655992 554.89582,533.637555 C549.062079,548.90393 549.780078,559.661815 557.049816,565.911208 C558.844813,567.518195 561.133434,568.768074 563.915679,569.660844 C566.697925,570.553615 570.041107,571 573.945225,571 Z M578.00068,567 C575.406656,567 573.39405,566.643586 571.962864,565.930757 C568.027102,563.792271 566.059221,560.272678 566.059221,555.371981 C565.343628,546.818035 571.113097,534.878154 583.367628,519.552335 C602.420293,495.850778 617.224124,484 627.779121,484 C634.040561,484 637.439628,488.588835 637.976322,497.766506 C638.24467,503.558239 636.232064,510.99839 631.938506,520.086957 C630.596769,520.532475 629.165583,521.289855 627.644948,522.359098 C621.920203,526.190553 619.057831,531.893183 619.057831,539.466989 L619.057831,539.466989 L619.057831,540.00161 C613.601434,546.506173 607.38472,552.253355 600.407688,557.243156 C591.283876,563.747719 583.814874,567 578.00068,567 Z M726.652174,453 C728.747412,453 730.614907,452.663462 732.254658,451.990385 C733.89441,451.317308 735.351967,450.397436 736.627329,449.230769 C737.993789,448.064103 739.064182,446.717949 739.838509,445.192308 C740.612836,443.666667 741,441.916667 741,439.942308 C741,437.967949 740.248447,436.150641 738.745342,434.490385 C737.242236,432.830128 734.919255,432 731.776398,432 C728.63354,432 725.741201,433.346154 723.099379,436.038462 C721.824017,437.205128 720.821946,438.551282 720.093168,440.076923 C719.364389,441.602564 719,443.352564 719,445.326923 C719,447.301282 719.751553,449.073718 721.254658,450.644231 C722.757764,452.214744 724.556936,453 726.652174,453 Z M658.350825,571 C667.076462,571 677.241379,566.851471 688.845577,558.554412 C693.883058,554.985784 698.695652,551.060294 703.283358,546.777941 C707.871064,542.495588 712.008996,538.413971 715.697151,534.533088 C719.385307,530.652206 722.466267,527.26201 724.94003,524.3625 C727.413793,521.46299 729.10045,519.567157 730,518.675 L730,518.675 L727.301349,516.266176 C726.851574,516.712255 725.457271,518.295833 723.118441,521.016912 C720.77961,523.73799 717.811094,526.972059 714.212894,530.719118 L714.212894,530.719118 L702.068966,542.763235 C697.571214,547.045588 692.916042,550.993382 688.103448,554.606618 C683.290855,558.219853 678.523238,561.230882 673.8006,563.639706 C669.077961,566.048529 664.062969,567.252941 658.755622,567.252941 C653.448276,567.252941 650.794603,565.870098 650.794603,563.104412 C650.794603,560.24951 652.368816,556.457843 655.517241,551.729412 C657.316342,548.963725 660.082459,545.149755 663.815592,540.2875 C667.548726,535.425245 684.302849,515.37402 714.077961,480.133824 C712.638681,480.312255 710.749625,480.401471 708.410795,480.401471 L708.410795,480.401471 L702.068966,480.401471 C698.74063,480.401471 696.536732,480.267647 695.457271,480 L695.457271,480 L674.677661,504.355882 C668.830585,511.403922 663.86057,517.604412 659.767616,522.957353 C655.674663,528.310294 652.346327,532.904902 649.782609,536.741176 C647.218891,540.577451 645.217391,543.923039 643.778111,546.777941 C642.338831,549.632843 641.349325,552.086275 640.809595,554.138235 C640.269865,556.190196 640,558.509804 640,561.097059 C640,563.684314 641.664168,565.981618 644.992504,567.988971 C648.32084,569.996324 652.773613,571 658.350825,571 Z M740.02448,572 C746.21787,572 752.815177,570.743989 759.816401,568.231968 C780.640555,560.695904 799.490004,545.848063 816.364749,523.688446 L816.364749,523.688446 L820,518.843833 L817.037944,516.5561 C816.678907,517.004675 815.512036,518.574688 813.537332,521.26614 C811.562627,523.957591 808.869849,527.209762 805.458996,531.022651 C802.048144,534.835541 798.008976,538.917576 793.341493,543.268756 C788.674011,547.619935 783.512852,551.634684 777.858017,555.313001 C772.203182,558.991318 766.077111,562.04163 759.479804,564.463936 C752.882497,566.886242 746.644227,568.097395 740.764994,568.097395 C734.885761,568.097395 730.0612,566.347952 726.29131,562.849065 C724.137087,560.785619 723.059976,557.780165 723.059976,553.832703 C723.059976,544.681768 727.323541,534.454252 735.850673,523.150156 C756.495308,496.056211 773.325173,482.509239 786.340269,482.509239 C792.713178,482.509239 795.989392,485.110975 796.168911,490.314448 L796.168911,490.314448 L796.168911,490.852738 C793.655651,489.686443 790.962872,489.19301 788.090575,489.37244 C786.115871,489.55187 784.118727,490.471449 782.099143,492.131178 C780.079559,493.790906 779.114647,495.876781 779.204406,498.388802 C779.383925,503.68199 782.705018,506.328584 789.167687,506.328584 C791.950224,506.328584 794.822521,504.803428 797.784578,501.753117 C802.272542,497.357079 803.439412,492.512467 801.28519,487.219279 C799.130967,482.015806 794.014688,479.279497 785.936353,479.010352 C776.780906,478.830922 767.356181,480.984083 757.662179,485.469835 C745.724194,491.032168 735.401877,499.016808 726.695226,509.423753 C715.565075,522.701581 710,535.75512 710,548.584372 C710,555.133571 712.243982,560.606189 716.731946,565.002226 C719.065687,567.155387 721.982864,568.859973 725.483476,570.115984 C728.984088,571.371995 733.831089,572 740.02448,572 Z M830.397242,572 C836.313663,572 842.566245,570.833575 849.154986,568.500724 C855.743728,566.167873 861.861846,563.206946 867.509339,559.617945 C873.246474,555.939219 878.468164,551.946454 883.174408,547.639653 C887.880653,543.332851 892.04904,539.227931 895.679571,535.324891 C899.310103,531.421852 902.313135,527.945007 904.688667,524.894356 C907.0642,521.843705 908.834644,519.824891 910,518.837916 L910,518.837916 L907.176254,516.549928 C906.369469,517.267728 904.867953,519.039797 902.671706,521.866136 C900.475458,524.692475 897.651712,528.034732 894.200466,531.892909 C890.74922,535.751085 886.782529,539.788712 882.300392,544.005789 C877.818254,548.222865 872.820671,552.125904 867.307642,555.714906 C861.794614,559.303907 855.878192,562.264834 849.558379,564.597685 C843.238565,566.930535 837.366965,568.096961 831.943579,568.096961 C826.520193,568.096961 822.396627,566.952967 819.57288,564.664978 C816.749134,562.37699 815.337261,558.518813 815.337261,553.090449 C815.337261,547.662084 817.981722,540.6411 823.270644,532.027496 C836.627413,527.63097 847.698292,523.36903 856.483281,519.241679 C880.417894,507.936324 892.071451,497.483357 891.443952,487.882779 C890.995738,481.960926 886.020566,479 876.518435,479 C866.926661,479 856.662566,482.140376 845.726151,488.421129 C840.078658,491.65123 833.534738,496.518813 826.09439,503.023878 C818.654042,509.528944 813.096192,516.729378 809.42084,524.625181 C800.904779,542.480463 800.859957,555.984081 809.286375,565.136035 C811.258516,567.289436 813.790923,568.97178 816.883598,570.183068 C819.976273,571.394356 824.480821,572 830.397242,572 Z M827,527 C830.572568,521.447761 836.645933,513.656716 845.220096,503.626866 C857.545455,489.208955 867.816587,482 876.033493,482 C880.677831,482 883,484.507463 883,489.522388 C883,492.477612 881.704944,495.522388 879.114833,498.656716 C871.344498,508.059701 853.972887,517.507463 827,527 Z M1036.31392,572 C1043.64895,572 1052.72827,567.821739 1063.5519,559.465217 C1068.20338,555.871014 1072.72068,551.917391 1077.1038,547.604348 C1081.48692,543.291304 1085.44515,539.157971 1088.97848,535.204348 C1092.51181,531.250725 1095.50844,527.768841 1097.96835,524.758696 C1100.42827,521.748551 1102.10549,519.794203 1103,518.895652 L1103,518.895652 L1100.18228,516.604348 C1099.37722,517.502899 1097.81181,519.389855 1095.48608,522.265217 L1095.48608,522.265217 L1086.89873,532.23913 C1083.49958,536.013043 1079.72025,540.011594 1075.56076,544.234783 C1071.40127,548.457971 1067.12996,552.344203 1062.74684,555.893478 C1058.36371,559.442754 1054.04768,562.363043 1049.79873,564.654348 C1045.54979,566.945652 1040.87595,568.091304 1035.77722,568.091304 C1030.67848,568.091304 1028.12911,567.013043 1028.12911,564.856522 L1028.12911,564.856522 L1029.06835,564.721739 C1029.06835,564.182609 1029.20253,563.396377 1029.47089,562.363043 C1029.73924,561.32971 1032.82532,557.713043 1038.72911,551.513043 C1052.9519,536.057971 1063.05992,523.523188 1069.05316,513.908696 C1071.91561,509.236232 1073.95063,505.192754 1075.15823,501.778261 C1076.36582,498.363768 1076.99198,495.016667 1077.03671,491.736957 C1077.08143,488.457246 1075.94093,485.649275 1073.61519,483.313043 C1072.36287,482.055072 1070.73038,481.021739 1068.71772,480.213043 C1066.70506,479.404348 1064.5135,479 1062.14304,479 C1059.77257,479 1057.60338,479.224638 1055.63544,479.673913 C1045.79578,481.74058 1031.30464,492.568116 1012.16203,512.156522 C1014.84557,507.933333 1016.72405,504.33913 1017.79747,501.373913 C1018.24473,499.936232 1018.58017,498.521014 1018.8038,497.128261 C1019.02743,495.735507 1019.20633,493.691304 1019.34051,490.995652 C1019.47468,488.3 1018.33418,485.73913 1015.91899,483.313043 C1012.87764,480.437681 1008.76287,479 1003.57468,479 C995.971308,479 987.697046,482.414493 978.751899,489.243478 C967.481013,497.42029 949.814346,515.481159 925.751899,543.426087 L925.751899,543.426087 L925.081013,541.943478 L953.258228,502.586957 C955.673418,499.172464 957.238819,496.386957 957.95443,494.230435 C961.532489,484.076812 958.401688,479 948.562025,479 C942.747679,479 935.457384,483.897101 926.691139,493.691304 C923.11308,497.644928 919.691561,501.755797 916.426582,506.023913 C913.161603,510.292029 910.232068,513.818841 907.637975,516.604348 C907.280169,516.963768 907.481435,517.525362 908.241772,518.28913 C909.00211,519.052899 909.740084,519.255072 910.455696,518.895652 L910.455696,518.895652 L919.043038,508.247826 C932.192405,491.804348 940.421941,483.582609 943.731646,483.582609 C945.967932,483.582609 946.907173,485.065217 946.549367,488.030435 C946.370464,489.557971 943.37384,494.410145 937.559494,502.586957 L937.559494,502.586957 L891,569.43913 C893.951899,568.54058 898.156118,568.091304 903.612658,568.091304 C906.74346,568.091304 909.337553,568.315942 911.394937,568.765217 L911.394937,568.765217 L923.873418,552.321739 C946.057384,525.095652 965.334177,504.923188 981.703797,491.804348 C989.486076,485.514493 996.284388,482.369565 1002.09873,482.369565 C1006.48186,482.369565 1008.67342,483.762319 1008.67342,486.547826 C1008.67342,488.524638 1007.19747,492.073913 1004.24557,497.195652 C1002.09873,500.7 990.962025,515.795652 970.835443,542.482609 C969.493671,544.189855 962.203376,553.175362 948.964557,569.43913 C952.274262,568.54058 956.478481,568.091304 961.577215,568.091304 C964.708017,568.091304 967.30211,568.315942 969.359494,568.765217 L969.359494,568.765217 L981.837975,552.321739 C993.377215,537.675362 1003.84304,525.589855 1013.23544,516.065217 C1035.24051,493.601449 1050.71561,482.369565 1059.66076,482.369565 C1064.22278,482.369565 1066.5038,483.986957 1066.5038,487.221739 C1066.5038,489.468116 1065.1173,492.792754 1062.3443,497.195652 C1060.82363,499.442029 1058.87806,502.092754 1056.50759,505.147826 C1055.50015,506.446232 1053.99587,508.272115 1051.99475,510.625476 L1050.88892,511.920652 C1048.32838,514.908333 1045.08017,518.626087 1041.1443,523.073913 C1033.27257,531.969565 1027.27932,539.921739 1023.16456,546.930435 C1021.10717,550.344928 1019.78776,553.175362 1019.20633,555.421739 C1018.62489,557.668116 1018.33418,559.644928 1018.33418,561.352174 C1018.33418,563.05942 1018.82616,564.542029 1019.81013,565.8 C1023.03038,569.933333 1028.53165,572 1036.31392,572 Z M1153.12062,571 C1170.03502,571 1191.37938,556.135371 1217.1537,526.406114 L1217.1537,526.406114 L1224,518.63901 L1221.18093,516.362445 L1214.73735,523.593886 C1212.05253,526.80786 1208.94261,530.289665 1205.40759,534.039301 C1201.87257,537.788937 1198.02432,541.627851 1193.86284,545.556041 C1189.70136,549.484231 1185.42802,553.055313 1181.0428,556.269287 C1176.65759,559.483261 1172.25,562.116934 1167.82004,564.170306 C1163.39008,566.223678 1159.47471,567.250364 1156.07393,567.250364 C1152.67315,567.250364 1150.97276,565.821931 1150.97276,562.965066 C1150.97276,557.876274 1156.34241,549.082484 1167.08171,536.583697 L1167.08171,536.583697 L1212.32101,482.213974 C1209.99416,482.571082 1206.19066,482.749636 1200.91051,482.749636 C1198.85214,482.749636 1196.61479,482.392528 1194.19844,481.678311 L1194.19844,481.678311 L1181.0428,497.882096 C1182.11673,495.203785 1182.6537,492.369238 1182.6537,489.378457 C1182.6537,486.387676 1181.0428,483.865599 1177.82101,481.812227 C1176.29961,480.919457 1174.5321,480.227559 1172.51848,479.736536 C1170.50486,479.245512 1167.75292,479 1164.26265,479 C1160.77237,479 1156.56615,479.491024 1151.64397,480.473071 C1135.17704,483.954876 1118.79961,495.159146 1102.51167,514.085881 C1091.50389,526.584668 1086,539.708394 1086,553.45706 C1086,565.152353 1091.50389,571 1102.51167,571 C1105.1965,571 1108.37354,570.375061 1112.0428,569.125182 C1125.37743,564.393498 1139.56226,552.787482 1154.59728,534.307132 L1154.59728,534.307132 L1155.93969,534.842795 L1147.48249,545.556041 C1142.29183,552.430374 1139.6965,558.144105 1139.6965,562.697234 C1139.6965,568.232411 1144.17121,571 1153.12062,571 Z M1103.04918,567 C1099.01639,567 1097,564.763578 1097,560.290735 C1097,550.539936 1103.31803,538.015974 1115.9541,522.71885 C1121.77923,515.741214 1127.42514,509.747604 1132.8918,504.738019 C1148.84372,490.246006 1161.0765,483 1169.59016,483 C1175.86339,483 1179,486.13099 1179,492.392971 C1179,496.060703 1176.31148,501.964856 1170.93443,510.105431 L1170.93443,510.105431 L1159.64262,523.658147 C1134.99781,552.552716 1116.13333,567 1103.04918,567 Z M1281.65217,453 C1283.74741,453 1285.61491,452.663462 1287.25466,451.990385 C1288.89441,451.317308 1290.35197,450.397436 1291.62733,449.230769 C1292.99379,448.064103 1294.06418,446.717949 1294.83851,445.192308 C1295.61284,443.666667 1296,441.916667 1296,439.942308 C1296,437.967949 1295.24845,436.150641 1293.74534,434.490385 C1292.24224,432.830128 1289.91925,432 1286.7764,432 C1283.63354,432 1280.7412,433.346154 1278.09938,436.038462 C1276.82402,437.205128 1275.82195,438.551282 1275.09317,440.076923 C1274.36439,441.602564 1274,443.352564 1274,445.326923 C1274,447.301282 1274.75155,449.073718 1276.25466,450.644231 C1277.75776,452.214744 1279.55694,453 1281.65217,453 Z M1213.35082,571 C1222.07646,571 1232.24138,566.851471 1243.84558,558.554412 C1248.88306,554.985784 1253.69565,551.060294 1258.28336,546.777941 C1262.87106,542.495588 1267.009,538.413971 1270.69715,534.533088 C1274.38531,530.652206 1277.46627,527.26201 1279.94003,524.3625 C1282.41379,521.46299 1284.10045,519.567157 1285,518.675 L1285,518.675 L1282.30135,516.266176 C1281.85157,516.712255 1280.45727,518.295833 1278.11844,521.016912 C1275.77961,523.73799 1272.81109,526.972059 1269.21289,530.719118 L1269.21289,530.719118 L1257.06897,542.763235 C1252.57121,547.045588 1247.91604,550.993382 1243.10345,554.606618 C1238.29085,558.219853 1233.52324,561.230882 1228.8006,563.639706 C1224.07796,566.048529 1219.06297,567.252941 1213.75562,567.252941 C1208.44828,567.252941 1205.7946,565.870098 1205.7946,563.104412 C1205.7946,560.24951 1207.36882,556.457843 1210.51724,551.729412 C1212.31634,548.963725 1215.08246,545.149755 1218.81559,540.2875 C1222.54873,535.425245 1239.30285,515.37402 1269.07796,480.133824 C1267.63868,480.312255 1265.74963,480.401471 1263.41079,480.401471 L1263.41079,480.401471 L1257.06897,480.401471 C1253.74063,480.401471 1251.53673,480.267647 1250.45727,480 L1250.45727,480 L1229.67766,504.355882 C1223.83058,511.403922 1218.86057,517.604412 1214.76762,522.957353 C1210.67466,528.310294 1207.34633,532.904902 1204.78261,536.741176 C1202.21889,540.577451 1200.21739,543.923039 1198.77811,546.777941 C1197.33883,549.632843 1196.34933,552.086275 1195.8096,554.138235 C1195.26987,556.190196 1195,558.509804 1195,561.097059 C1195,563.684314 1196.66417,565.981618 1199.9925,567.988971 C1203.32084,569.996324 1207.77361,571 1213.35082,571 Z M1272.00701,571 C1280.94654,571 1291.36109,566.871426 1303.25066,558.614277 C1308.34619,555.024212 1313.24058,551.075141 1317.93383,546.767063 C1322.62708,542.458986 1326.87336,538.375287 1330.67266,534.515967 C1334.47195,530.656648 1337.69018,527.246086 1340.32734,524.284283 C1342.9645,521.32248 1344.77476,519.347944 1345.75811,518.360676 L1345.75811,518.360676 L1343.07625,516.07201 C1342.1823,516.969526 1340.48379,518.85431 1337.98072,521.726362 L1337.98072,521.726362 L1328.72831,531.688791 C1325.0631,535.458359 1320.99562,539.429869 1316.52585,543.603319 C1312.05609,547.776769 1307.42989,551.613651 1302.64724,555.113964 C1297.86459,558.614277 1293.03725,561.508766 1288.16521,563.797433 C1283.29316,566.086099 1278.71166,567.230432 1274.42068,567.230432 C1270.12971,567.230432 1267.98422,565.74953 1267.98422,562.787727 C1267.98422,561.172198 1268.5206,559.287414 1269.59334,557.133375 C1270.3085,555.697349 1271.38124,553.835003 1272.81157,551.546337 C1274.24189,549.257671 1276.47677,545.847109 1279.51621,541.314652 C1282.55565,536.782196 1326.71691,475.010645 1412,356 C1406.01052,356.897516 1399.79755,356.897516 1393.36109,356 L1393.36109,356 L1289.70727,504.763306 L1269.19106,535.189105 C1266.95618,538.689418 1265.16827,541.673659 1263.82734,544.141828 C1262.48642,546.609998 1261.45837,548.764037 1260.74321,550.603945 C1260.02805,552.443853 1259.55872,554.08182 1259.33523,555.517846 C1259.11174,556.953872 1259,558.861094 1259,561.239512 C1259,563.617929 1260.22918,565.839282 1262.68755,567.903569 C1265.14592,569.967856 1268.25241,571 1272.00701,571 Z M1334.31172,574 C1358.74403,574 1374.719,565.812576 1382.23663,549.437727 C1382.9526,549.616687 1383.66856,549.706167 1384.38453,549.706167 L1384.38453,549.706167 L1386.66667,549.706167 C1393.91581,549.706167 1403.76033,542.995163 1416.20023,529.573156 L1416.20023,529.573156 L1421.83845,523.130593 C1423.53887,521.251511 1424.92605,519.775091 1426,518.70133 L1426,518.70133 L1423.04664,516.419589 L1419.95904,520.446191 C1418.43762,522.235792 1416.67008,524.226723 1414.65643,526.418984 C1412.64278,528.611245 1410.42776,530.892987 1408.01138,533.264208 C1405.59499,535.635429 1403.15624,537.80532 1400.69511,539.773881 C1398.23398,541.742443 1395.83997,543.353083 1393.51308,544.605804 C1391.1862,545.858525 1389.19492,546.484885 1387.53925,546.484885 C1385.88358,546.484885 1384.51877,546.395405 1383.44482,546.216445 C1386.21919,538.700121 1386.62192,528.857316 1384.65301,516.688029 L1384.65301,516.688029 L1381.29693,494.407497 C1380.75995,491.096735 1380.53622,488.233374 1380.62571,485.817412 L1380.62571,485.817412 L1380.62571,484.206771 C1380.62571,483.669891 1380.71521,483.110641 1380.8942,482.529021 C1381.07319,481.9474 1381.45355,481.23156 1382.03527,480.381499 C1382.61699,479.531439 1384.22791,477.562878 1386.86803,474.475816 C1389.50815,471.388755 1390.87296,468.995163 1390.96246,467.295042 C1390.96246,466.042322 1390.44786,465.013301 1389.41866,464.207981 C1388.38946,463.40266 1387.11414,463 1385.59272,463 C1382.37088,463 1380.04399,466.489722 1378.61206,473.469166 C1375.7482,477.227328 1362.77133,492.886336 1339.68146,520.446191 C1338.697,521.698912 1338.29427,522.548972 1338.47327,522.996372 C1338.83125,523.622733 1339.54721,523.891173 1340.62116,523.801693 C1340.62116,523.801693 1341.04626,523.488513 1341.89647,522.862152 C1342.74668,522.235792 1344.06674,520.848851 1345.85666,518.70133 L1345.85666,518.70133 L1377.53811,479.777509 C1377.53811,480.314389 1377.49336,480.71705 1377.40387,480.98549 C1374.6295,488.680774 1372.97383,499.3289 1372.43686,512.929867 C1371.5419,533.152358 1365.67994,548.408706 1354.85097,558.698912 C1350.91316,562.457074 1346.90823,565.141475 1342.83618,566.752116 C1338.76413,568.362757 1334.82632,569.168077 1331.02275,569.168077 C1327.21919,569.168077 1323.57224,568.541717 1320.08191,567.288996 C1317.75502,566.483676 1315.74137,565.320435 1314.04096,563.799274 C1312.34054,562.278114 1311.49033,560.242443 1311.49033,557.692261 C1311.49033,555.14208 1312.47478,552.659008 1314.44369,550.243047 C1315.24915,549.258767 1316.07698,548.408706 1316.92719,547.692866 C1317.7774,546.977025 1318.47099,546.350665 1319.00796,545.813785 C1319.63443,546.171705 1320.46227,546.730955 1321.49147,547.491536 C1322.52067,548.252116 1323.59462,548.632406 1324.71331,548.632406 C1325.83201,548.632406 1326.97308,548.453446 1328.13652,548.095526 C1331.80584,546.932285 1333.77474,545.187424 1334.04323,542.860943 C1334.04323,539.460701 1332.23094,537.76058 1328.60637,537.76058 C1324.9818,537.76058 1320.88737,539.415961 1316.32309,542.726723 C1314.0857,544.337364 1312.13917,546.373035 1310.4835,548.833736 C1308.82783,551.294438 1308,554.269649 1308,557.759371 C1308,561.249093 1309.0292,564.112455 1311.0876,566.349456 C1315.92036,571.449819 1323.66174,574 1334.31172,574 Z M1446.28902,677 C1450.77591,677 1455.57688,675.34235 1460.69194,672.02705 C1470.74257,665.575655 1479.80609,654.196112 1487.8825,637.888419 C1500.35605,612.799662 1507.84916,584.126796 1510.36182,551.869822 L1510.36182,551.869822 L1515.88069,543.267963 C1520.6368,546.672866 1526.24541,548.733728 1532.70653,549.450549 C1544.01349,550.615385 1554.46795,548.957735 1564.0699,544.477599 C1568.37731,542.50634 1572.2136,540.243872 1575.57877,537.690194 C1578.94394,535.136517 1581.90528,532.627642 1584.46281,530.163567 C1587.02034,527.699493 1589.15161,525.437025 1590.85663,523.376162 C1592.56165,521.3153 1593.90772,519.836855 1594.89483,518.940828 L1594.89483,518.940828 L1591.79888,516.790363 C1584.53012,525.750634 1577.66517,532.336433 1571.20405,536.54776 C1566.44795,539.594252 1560.92907,542.080727 1554.64743,544.007185 C1548.36578,545.933643 1541.74762,546.672866 1534.79293,546.224852 C1527.83825,545.776839 1522.20721,543.715976 1517.89979,540.042265 L1517.89979,540.042265 L1527.45687,525.257819 C1546.12233,513.430262 1565.41596,497.749789 1585.33776,478.216399 C1594.76023,468.808115 1603.6667,459.108622 1612.05719,449.117921 C1620.44767,439.127219 1627.78374,429.360524 1634.06539,419.817836 C1640.34703,410.275148 1645.28261,401.270076 1648.87213,392.80262 C1652.46164,384.335165 1654.16666,377.704565 1653.98718,372.91082 C1653.8077,368.117075 1652.77572,364.600169 1650.89123,362.360101 C1649.00673,360.120034 1646.13512,359 1642.2764,359 C1635.6358,359 1626.66202,364.64497 1615.35505,375.934911 C1609.97078,381.311074 1603.44236,388.792899 1595.76978,398.380389 C1588.09719,407.967878 1581.38929,417.196957 1575.64607,426.067625 L1575.64607,426.067625 L1509.55418,528.349112 C1508.38758,525.929839 1507.62481,523.734573 1507.26586,521.763314 C1509.41957,520.688081 1511.43867,518.716822 1513.32316,515.849535 C1514.1308,514.6847 1514.7814,513.452663 1515.27496,512.153423 C1515.76852,510.854184 1516.0153,509.308538 1516.0153,507.516484 C1516.0153,505.724429 1515.31983,504.111581 1513.92889,502.677937 C1512.53796,501.244294 1510.7432,500.527473 1508.54463,500.527473 C1506.34605,500.527473 1504.48399,501.4459 1502.95845,503.282756 C1501.4329,505.119611 1500.46822,507.382079 1500.0644,510.070161 C1499.66058,512.758242 1499.95223,516.207946 1500.93935,520.419273 C1501.92646,524.6306 1503.76609,528.841927 1506.45822,533.053254 L1506.45822,533.053254 L1470.92205,586.814877 L1454.09621,613.292477 C1449.42984,620.819104 1445.63842,627.248098 1442.72194,632.579459 C1439.80546,637.91082 1437.51715,642.480558 1435.857,646.288673 C1434.19685,650.096788 1433.12,653.389687 1432.62644,656.167371 C1432.13288,658.945055 1431.93097,661.879544 1432.02071,664.970837 C1432.11045,668.06213 1433.38921,670.839814 1435.857,673.303888 C1438.32479,675.767963 1441.80213,677 1446.28902,677 Z M1532,518 L1608.22387,399.181347 C1616.49832,386.248705 1623.46865,376.639033 1629.13485,370.352332 C1632.01292,367.208981 1634.44129,365.031088 1636.41996,363.818653 C1638.39863,362.606218 1640.17494,362 1641.74888,362 C1643.32283,362 1644.69441,362.62867 1645.86362,363.88601 C1648.92157,367.298791 1648.69672,374.214162 1645.18908,384.632124 C1639.52288,401.426598 1627.42599,421.319516 1608.89842,444.310881 C1583.62537,475.744387 1557.99257,500.307427 1532,518 L1532,518 Z M1446.68098,673 C1444.47648,673 1442.81186,672.440226 1441.68712,671.320678 C1440.56237,670.201129 1440,668.880062 1440,667.357477 C1440,663.685358 1443.23926,656.251558 1449.71779,645.056075 L1449.71779,645.056075 L1460.51534,627.32243 L1506,558 C1504.02045,579.316199 1499.07157,599.468069 1491.15337,618.455607 C1487.55419,626.964174 1483.66258,634.599494 1479.47853,641.361565 C1475.29448,648.123637 1471.15542,653.833333 1467.06135,658.490654 C1462.96728,663.147975 1459.09816,666.73053 1455.45399,669.238318 C1451.80982,671.746106 1448.88548,673 1446.68098,673 Z M1597.94522,571 C1601.84934,571 1605.86565,570.375061 1609.99414,569.125182 C1622.37962,565.196992 1633.91248,557.206696 1644.59271,545.154294 C1646.11846,547.832606 1648.5417,549.171761 1651.86245,549.171761 C1658.95268,549.171761 1667.11992,544.931101 1676.36415,536.449782 C1680.56128,532.353541 1682.90673,530.064465 1683.40051,529.582554 L1683.47458,529.510267 C1683.49104,529.494204 1683.49927,529.486172 1683.49927,529.486172 C1685.74301,527.254246 1687.76239,525.156235 1689.55738,523.19214 C1691.35238,521.228045 1692.83325,519.710335 1694,518.63901 L1694,518.63901 L1691.03826,516.362445 C1690.41001,516.987385 1689.37788,518.147986 1687.94189,519.84425 L1687.94189,519.84425 L1682.82614,525.468705 C1680.7619,527.611354 1678.49571,529.865599 1676.02759,532.231441 C1673.55947,534.597283 1671.04648,536.739932 1668.48861,538.659389 C1665.93073,540.578845 1663.37286,542.185832 1660.81499,543.480349 C1658.25712,544.774867 1655.56463,545.422125 1652.73751,545.422125 C1649.91039,545.422125 1648.1827,544.127608 1647.55445,541.538574 C1653.47794,534.217855 1658.05519,526.450752 1661.28618,518.237263 C1662.90168,514.219796 1664.1133,510.202329 1664.92105,506.184862 C1665.7288,502.167394 1665.99805,497.859777 1665.7288,493.262009 C1665.45955,488.664241 1663.59724,485.137797 1660.14187,482.682678 C1656.6865,480.227559 1652.58045,479 1647.8237,479 C1636.78447,479 1625.47599,482.883552 1613.89826,490.650655 C1608.78252,494.13246 1604.00334,498.082969 1599.56072,502.502183 C1595.1181,506.921397 1591.12424,511.720039 1587.57912,516.898108 C1584.034,522.076177 1581.13957,527.655992 1578.89582,533.637555 C1573.06208,548.90393 1573.78008,559.661815 1581.04982,565.911208 C1582.84481,567.518195 1585.13343,568.768074 1587.91568,569.660844 C1590.69792,570.553615 1594.04111,571 1597.94522,571 Z M1602.00068,567 C1599.40666,567 1597.39405,566.643586 1595.96286,565.930757 C1592.0271,563.792271 1590.05922,560.272678 1590.05922,555.371981 C1589.34363,546.818035 1595.1131,534.878154 1607.36763,519.552335 C1626.42029,495.850778 1641.22412,484 1651.77912,484 C1658.04056,484 1661.43963,488.588835 1661.97632,497.766506 C1662.24467,503.558239 1660.23206,510.99839 1655.93851,520.086957 C1654.59677,520.532475 1653.16558,521.289855 1651.64495,522.359098 C1645.9202,526.190553 1643.05783,531.893183 1643.05783,539.466989 L1643.05783,539.466989 L1643.05783,540.00161 C1637.60143,546.506173 1631.38472,552.253355 1624.40769,557.243156 C1615.28388,563.747719 1607.81487,567 1602.00068,567 Z M1712.23038,571 C1727.95469,571 1746.71666,559.462112 1768.51627,536.386335 L1768.51627,536.386335 L1778.16528,525.653416 C1781.02425,522.43354 1783.30249,520.063354 1785,518.542857 L1785,518.542857 L1782.31972,516.262112 L1776.82514,522.43354 C1774.23421,525.385093 1771.15188,528.69441 1767.57817,532.361491 L1767.57817,532.361491 L1755.91895,544.03354 C1751.6305,548.058385 1747.27505,551.725466 1742.85258,555.034783 C1738.43012,558.344099 1734.097,561.07205 1729.85322,563.218634 C1725.60944,565.365217 1721.72304,566.438509 1718.194,566.438509 C1714.66496,566.438509 1712.90045,564.381366 1712.90045,560.267081 C1712.90045,556.063354 1715.3127,550.204969 1720.1372,542.691925 C1722.37077,539.203727 1724.96171,535.581366 1727.91002,531.824845 C1730.85833,528.068323 1733.98532,524.378882 1737.291,520.756522 C1740.59668,517.134161 1743.9917,513.668323 1747.47607,510.359006 C1750.96043,507.049689 1754.15444,504.232298 1757.05807,501.906832 C1759.96171,499.581366 1761.41353,498.016149 1761.41353,497.21118 C1761.41353,495.959006 1760.16273,495.288199 1757.66114,495.198758 C1753.99809,495.019876 1749.03957,494.349068 1742.78558,493.186335 C1739.92661,492.649689 1735.07977,491.665839 1728.24505,490.234783 C1721.41034,488.803727 1717.99298,487.28323 1717.99298,485.673292 C1717.99298,482.990062 1718.79706,480.619876 1720.40523,478.562733 L1720.40523,478.562733 L1722.81749,474.403727 C1723.62157,472.972671 1724.02361,471.228571 1724.02361,469.171429 C1724.02361,465.057143 1721.20932,463 1715.58073,463 C1712.54308,463 1709.8628,464.744099 1707.53989,468.232298 C1706.46777,469.842236 1705.68602,471.653416 1705.19464,473.665839 C1704.70325,475.678261 1704.68092,477.847205 1705.12763,480.172671 C1705.57435,482.498137 1707.40587,484.689441 1710.62221,486.746584 C1706.69113,494.796273 1700.57116,504.008696 1692.26228,514.383851 C1688.68858,518.76646 1684.80217,523.32795 1680.60306,528.068323 C1680.33504,528.426087 1680.15635,528.761491 1680.06701,529.074534 C1679.97766,529.387578 1679.97766,529.857143 1680.06701,530.48323 C1680.15635,531.109317 1680.29036,531.35528 1680.46905,531.221118 C1680.64773,531.086957 1681.07211,530.885714 1681.74218,530.617391 C1682.41225,530.349068 1684.17677,528.73913 1687.03574,525.787578 C1699.27569,513.176398 1708.34397,500.78882 1714.24059,488.624845 C1721.47735,491.84472 1734.56605,495.019876 1753.5067,498.150311 C1714.73197,524.17764 1695.34461,543.854658 1695.34461,557.181366 C1695.34461,561.385093 1696.88577,564.73913 1699.96809,567.243478 C1703.05041,569.747826 1707.13784,571 1712.23038,571 Z M1980.00762,574 C1996.48785,574 2010.86327,568.614306 2023.13387,557.842917 C2025.10434,555.868163 2025.77608,554.162693 2025.14912,552.726508 C2024.79085,551.918654 2023.93997,552.187938 2022.59647,553.534362 C2013.37113,562.779804 1998.72701,567.402525 1978.66413,567.402525 C1956.00381,567.402525 1936.52311,564.485273 1920.22201,558.650771 C1939.65793,548.507714 1959.2282,530.241234 1978.93283,503.851332 C1993.80086,501.607293 2009.6989,496.580645 2026.62697,488.771388 C2034.68795,485.001403 2042.59219,480.827489 2050.33969,476.249649 C2058.08718,471.671809 2065.40924,466.824684 2072.30586,461.708275 C2079.20248,456.591865 2085.5617,451.295933 2091.38352,445.820477 C2097.20534,440.345021 2102.24345,434.869565 2106.49786,429.394109 C2110.75226,423.918654 2114.06622,418.5554 2116.43973,413.304348 C2118.81324,408.053296 2120,403.632539 2120,400.042076 C2120,396.451613 2119.4626,393.624123 2118.3878,391.559607 C2114.98428,385.186536 2108.08766,382 2097.69795,382 C2078.17246,382 2059.31872,389.046283 2041.13673,403.13885 C2022.50691,417.680224 2002.08576,441.556802 1979.87327,474.768583 L1979.87327,474.768583 L1961.60172,501.293128 C1944.49452,501.113604 1931.28347,497.837307 1921.96856,491.464236 C1917.22153,488.143058 1913.5717,483.969144 1911.01906,478.942496 C1908.46641,473.915849 1907.19009,467.228612 1907.19009,458.880785 C1907.19009,450.532959 1910.6384,442.454418 1917.53502,434.645161 C1920.93854,430.785414 1925.21534,427.509116 1930.36541,424.816269 C1935.51548,422.123422 1940.5536,420.530154 1945.47975,420.036466 C1950.40591,419.542777 1952.86899,418.892006 1952.86899,418.084151 C1952.86899,417.007013 1951.88375,416.468443 1949.91329,416.468443 C1936.38876,416.468443 1924.16293,421.539972 1913.23583,431.683029 C1902.48785,441.646564 1897.11386,452.507714 1897.11386,464.26648 C1897.11386,476.025245 1902.75655,485.629734 1914.04192,493.079944 C1925.596,500.619916 1940.50881,504.659187 1958.78037,505.197756 C1940.32968,530.420757 1924.74512,547.206171 1912.02668,555.553997 C1894.29252,549.270687 1880.25298,546.129032 1869.90805,546.129032 C1859.56313,546.129032 1851.70367,547.385694 1846.32968,549.899018 C1843.64269,551.065919 1841.58266,552.502104 1840.1496,554.207574 C1838.71653,555.913043 1838,557.618513 1838,559.323983 C1838,561.029453 1838.58218,562.5554 1839.74655,563.901823 C1843.95617,568.569425 1853.2263,570.903226 1867.55693,570.903226 C1884.39543,570.903226 1899.89042,567.806452 1914.04192,561.612903 C1941.53883,569.870968 1963.52739,574 1980.00762,574 Z M1983,500 C1988.0219,493.204706 1993.08863,485.872941 1998.20021,478.004706 L1998.20021,478.004706 L2014.34202,452.790588 C2041.51408,408.263529 2069.35871,386 2097.87591,386 C2099.8488,386 2101.68717,386.357647 2103.39103,387.072941 C2109.13034,389.397647 2112,393.152941 2112,398.338824 C2112,410.051765 2105.22941,423.374118 2091.68822,438.305882 C2078.50574,452.969412 2062.22941,465.844706 2042.85923,476.931765 C2021.78519,489.091765 2001.83212,496.781176 1983,500 Z M1868.77824,568 C1863.06555,568 1858.7364,567.724771 1855.79079,567.174312 C1846.59693,565.431193 1842,563 1842,559.880734 C1842,555.293578 1851.1046,553 1869.31381,553 C1878.23989,553 1890.46862,555.110092 1906,559.330275 C1895.64575,565.110092 1883.23849,568 1868.77824,568 Z M2118.65217,453 C2120.74741,453 2122.61491,452.663462 2124.25466,451.990385 C2125.89441,451.317308 2127.35197,450.397436 2128.62733,449.230769 C2129.99379,448.064103 2131.06418,446.717949 2131.83851,445.192308 C2132.61284,443.666667 2133,441.916667 2133,439.942308 C2133,437.967949 2132.24845,436.150641 2130.74534,434.490385 C2129.24224,432.830128 2126.91925,432 2123.7764,432 C2120.63354,432 2117.7412,433.346154 2115.09938,436.038462 C2113.82402,437.205128 2112.82195,438.551282 2112.09317,440.076923 C2111.36439,441.602564 2111,443.352564 2111,445.326923 C2111,447.301282 2111.75155,449.073718 2113.25466,450.644231 C2114.75776,452.214744 2116.55694,453 2118.65217,453 Z M2050.35082,571 C2059.07646,571 2069.24138,566.851471 2080.84558,558.554412 C2085.88306,554.985784 2090.69565,551.060294 2095.28336,546.777941 C2099.87106,542.495588 2104.009,538.413971 2107.69715,534.533088 C2111.38531,530.652206 2114.46627,527.26201 2116.94003,524.3625 C2119.41379,521.46299 2121.10045,519.567157 2122,518.675 L2122,518.675 L2119.30135,516.266176 C2118.85157,516.712255 2117.45727,518.295833 2115.11844,521.016912 C2112.77961,523.73799 2109.81109,526.972059 2106.21289,530.719118 L2106.21289,530.719118 L2094.06897,542.763235 C2089.57121,547.045588 2084.91604,550.993382 2080.10345,554.606618 C2075.29085,558.219853 2070.52324,561.230882 2065.8006,563.639706 C2061.07796,566.048529 2056.06297,567.252941 2050.75562,567.252941 C2045.44828,567.252941 2042.7946,565.870098 2042.7946,563.104412 C2042.7946,560.24951 2044.36882,556.457843 2047.51724,551.729412 C2049.31634,548.963725 2052.08246,545.149755 2055.81559,540.2875 C2059.54873,535.425245 2076.30285,515.37402 2106.07796,480.133824 C2104.63868,480.312255 2102.74963,480.401471 2100.41079,480.401471 L2100.41079,480.401471 L2094.06897,480.401471 C2090.74063,480.401471 2088.53673,480.267647 2087.45727,480 L2087.45727,480 L2066.67766,504.355882 C2060.83058,511.403922 2055.86057,517.604412 2051.76762,522.957353 C2047.67466,528.310294 2044.34633,532.904902 2041.78261,536.741176 C2039.21889,540.577451 2037.21739,543.923039 2035.77811,546.777941 C2034.33883,549.632843 2033.34933,552.086275 2032.8096,554.138235 C2032.26987,556.190196 2032,558.509804 2032,561.097059 C2032,563.684314 2033.66417,565.981618 2036.9925,567.988971 C2040.32084,569.996324 2044.77361,571 2050.35082,571 Z M2107.22222,571 C2112.3412,571 2117.99902,569.829817 2124.19567,567.489451 C2140.98951,561.368495 2159.13045,550.116737 2178.61849,533.734177 C2176.64274,538.054852 2176.21616,541.520394 2177.33874,544.130802 C2178.46132,546.74121 2181.22288,548.046414 2185.6234,548.046414 C2196.13078,548.046414 2210.58964,538.099859 2229,518.206751 L2229,518.206751 L2226.17109,515.911392 L2218.76205,523.742616 C2215.61881,526.983122 2212.18371,530.156118 2208.45674,533.261603 C2204.72976,536.367089 2200.93543,539.045007 2197.07375,541.295359 C2193.21206,543.54571 2189.91167,544.670886 2187.17257,544.670886 C2184.43346,544.670886 2182.56998,544.175809 2181.5821,543.185654 C2178.88791,540.125176 2180.32481,534.814346 2185.89282,527.253165 L2185.89282,527.253165 L2189.52999,523.877637 C2207.40151,506.504923 2216.33727,492.687764 2216.33727,482.42616 C2216.33727,477.475387 2213.82268,475 2208.79351,475 C2205.82989,475 2203.31531,476.057665 2201.24975,478.172996 C2199.1842,480.288326 2198.15143,483.011252 2198.15143,486.341772 C2198.15143,494.893108 2196.89413,502.049226 2194.37955,507.810127 C2192.85284,511.320675 2190.60767,514.966245 2187.64405,518.746835 C2184.68043,522.527426 2179.00016,528.130802 2170.60324,535.556962 C2162.20633,542.983122 2152.70928,549.801688 2142.11209,556.012658 C2136.27466,559.433193 2130.52704,562.201125 2124.86922,564.316456 C2119.21141,566.431786 2114.56391,567.489451 2110.92675,567.489451 C2107.28958,567.489451 2104.79744,567.196906 2103.45034,566.611814 C2102.10324,566.026723 2101.4297,563.933896 2101.4297,560.333333 C2101.4297,556.732771 2106.23435,549.666667 2115.84366,539.135021 L2115.84366,539.135021 L2131.06588,522.932489 C2133.40085,520.592124 2135.28679,518.611814 2136.7237,516.991561 L2136.7237,516.991561 L2154.77483,497.008439 C2158.72632,492.507736 2164.69846,486.656821 2172.69125,479.455696 C2170.26647,479.725738 2167.21304,479.860759 2163.53097,479.860759 C2159.8489,479.860759 2155.85251,479.590717 2151.54179,479.050633 L2151.54179,479.050633 L2132.6824,498.088608 C2126.93478,504.029536 2120.35644,511.635724 2112.94739,520.907173 C2105.53835,530.178622 2100.1275,537.874824 2096.71485,543.995781 C2094.82891,547.326301 2093.57162,550.184248 2092.94297,552.56962 C2092.31432,554.954993 2092,557.610408 2092,560.535865 C2092,563.461322 2093.25729,565.936709 2095.77188,567.962025 C2098.28646,569.987342 2102.10324,571 2107.22222,571 Z M2239.39724,572 C2245.31366,572 2251.56624,570.833575 2258.15499,568.500724 C2264.74373,566.167873 2270.86185,563.206946 2276.50934,559.617945 C2282.24647,555.939219 2287.46816,551.946454 2292.17441,547.639653 C2296.88065,543.332851 2301.04904,539.227931 2304.67957,535.324891 C2308.3101,531.421852 2311.31313,527.945007 2313.68867,524.894356 C2316.0642,521.843705 2317.83464,519.824891 2319,518.837916 L2319,518.837916 L2316.17625,516.549928 C2315.36947,517.267728 2313.86795,519.039797 2311.67171,521.866136 C2309.47546,524.692475 2306.65171,528.034732 2303.20047,531.892909 C2299.74922,535.751085 2295.78253,539.788712 2291.30039,544.005789 C2286.81825,548.222865 2281.82067,552.125904 2276.30764,555.714906 C2270.79461,559.303907 2264.87819,562.264834 2258.55838,564.597685 C2252.23857,566.930535 2246.36697,568.096961 2240.94358,568.096961 C2235.52019,568.096961 2231.39663,566.952967 2228.57288,564.664978 C2225.74913,562.37699 2224.33726,558.518813 2224.33726,553.090449 C2224.33726,547.662084 2226.98172,540.6411 2232.27064,532.027496 C2245.62741,527.63097 2256.69829,523.36903 2265.48328,519.241679 C2289.41789,507.936324 2301.07145,497.483357 2300.44395,487.882779 C2299.99574,481.960926 2295.02057,479 2285.51843,479 C2275.92666,479 2265.66257,482.140376 2254.72615,488.421129 C2249.07866,491.65123 2242.53474,496.518813 2235.09439,503.023878 C2227.65404,509.528944 2222.09619,516.729378 2218.42084,524.625181 C2209.90478,542.480463 2209.85996,555.984081 2218.28638,565.136035 C2220.25852,567.289436 2222.79092,568.97178 2225.8836,570.183068 C2228.97627,571.394356 2233.48082,572 2239.39724,572 Z M2236,527 C2239.57257,521.447761 2245.64593,513.656716 2254.2201,503.626866 C2266.54545,489.208955 2276.81659,482 2285.03349,482 C2289.67783,482 2292,484.507463 2292,489.522388 C2292,492.477612 2290.70494,495.522388 2288.11483,498.656716 C2280.3445,508.059701 2262.97289,517.507463 2236,527 Z M2307.31172,574 C2331.74403,574 2347.719,565.812576 2355.23663,549.437727 C2355.9526,549.616687 2356.66856,549.706167 2357.38453,549.706167 L2357.38453,549.706167 L2359.66667,549.706167 C2366.91581,549.706167 2376.76033,542.995163 2389.20023,529.573156 L2389.20023,529.573156 L2394.83845,523.130593 C2396.53887,521.251511 2397.92605,519.775091 2399,518.70133 L2399,518.70133 L2396.04664,516.419589 L2392.95904,520.446191 C2391.43762,522.235792 2389.67008,524.226723 2387.65643,526.418984 C2385.64278,528.611245 2383.42776,530.892987 2381.01138,533.264208 C2378.59499,535.635429 2376.15624,537.80532 2373.69511,539.773881 C2371.23398,541.742443 2368.83997,543.353083 2366.51308,544.605804 C2364.1862,545.858525 2362.19492,546.484885 2360.53925,546.484885 C2358.88358,546.484885 2357.51877,546.395405 2356.44482,546.216445 C2359.21919,538.700121 2359.62192,528.857316 2357.65301,516.688029 L2357.65301,516.688029 L2354.29693,494.407497 C2353.75995,491.096735 2353.53622,488.233374 2353.62571,485.817412 L2353.62571,485.817412 L2353.62571,484.206771 C2353.62571,483.669891 2353.71521,483.110641 2353.8942,482.529021 C2354.07319,481.9474 2354.45355,481.23156 2355.03527,480.381499 C2355.61699,479.531439 2357.22791,477.562878 2359.86803,474.475816 C2362.50815,471.388755 2363.87296,468.995163 2363.96246,467.295042 C2363.96246,466.042322 2363.44786,465.013301 2362.41866,464.207981 C2361.38946,463.40266 2360.11414,463 2358.59272,463 C2355.37088,463 2353.04399,466.489722 2351.61206,473.469166 C2348.7482,477.227328 2335.77133,492.886336 2312.68146,520.446191 C2311.697,521.698912 2311.29427,522.548972 2311.47327,522.996372 C2311.83125,523.622733 2312.54721,523.891173 2313.62116,523.801693 C2313.62116,523.801693 2313.62411,523.799518 2313.63002,523.795168 L2313.70087,523.742972 C2313.86028,523.625529 2314.25882,523.331923 2314.89647,522.862152 C2315.74668,522.235792 2317.06674,520.848851 2318.85666,518.70133 L2318.85666,518.70133 L2350.53811,479.777509 C2350.53811,480.314389 2350.49336,480.71705 2350.40387,480.98549 C2347.6295,488.680774 2345.97383,499.3289 2345.43686,512.929867 C2344.5419,533.152358 2338.67994,548.408706 2327.85097,558.698912 C2323.91316,562.457074 2319.90823,565.141475 2315.83618,566.752116 C2311.76413,568.362757 2307.82632,569.168077 2304.02275,569.168077 C2300.21919,569.168077 2296.57224,568.541717 2293.08191,567.288996 C2290.75502,566.483676 2288.74137,565.320435 2287.04096,563.799274 C2285.34054,562.278114 2284.49033,560.242443 2284.49033,557.692261 C2284.49033,555.14208 2285.47478,552.659008 2287.44369,550.243047 C2288.24915,549.258767 2289.07698,548.408706 2289.92719,547.692866 C2290.7774,546.977025 2291.47099,546.350665 2292.00796,545.813785 C2292.63443,546.171705 2293.46227,546.730955 2294.49147,547.491536 C2295.52067,548.252116 2296.59462,548.632406 2297.71331,548.632406 C2298.83201,548.632406 2299.97308,548.453446 2301.13652,548.095526 C2304.80584,546.932285 2306.77474,545.187424 2307.04323,542.860943 C2307.04323,539.460701 2305.23094,537.76058 2301.60637,537.76058 C2297.9818,537.76058 2293.88737,539.415961 2289.32309,542.726723 C2287.0857,544.337364 2285.13917,546.373035 2283.4835,548.833736 C2281.82783,551.294438 2281,554.269649 2281,557.759371 C2281,561.249093 2282.0292,564.112455 2284.0876,566.349456 C2288.92036,571.449819 2296.66174,574 2307.31172,574 Z M2594.00762,574 C2610.48785,574 2624.86327,568.614306 2637.13387,557.842917 C2639.10434,555.868163 2639.77608,554.162693 2639.14912,552.726508 C2638.79085,551.918654 2637.93997,552.187938 2636.59647,553.534362 C2627.37113,562.779804 2612.72701,567.402525 2592.66413,567.402525 C2570.00381,567.402525 2550.52311,564.485273 2534.22201,558.650771 C2553.65793,548.507714 2573.2282,530.241234 2592.93283,503.851332 C2607.80086,501.607293 2623.6989,496.580645 2640.62697,488.771388 C2648.68795,485.001403 2656.59219,480.827489 2664.33969,476.249649 C2672.08718,471.671809 2679.40924,466.824684 2686.30586,461.708275 C2693.20248,456.591865 2699.5617,451.295933 2705.38352,445.820477 C2711.20534,440.345021 2716.24345,434.869565 2720.49786,429.394109 C2724.75226,423.918654 2728.06622,418.5554 2730.43973,413.304348 C2732.81324,408.053296 2734,403.632539 2734,400.042076 C2734,396.451613 2733.4626,393.624123 2732.3878,391.559607 C2728.98428,385.186536 2722.08766,382 2711.69795,382 C2692.17246,382 2673.31872,389.046283 2655.13673,403.13885 C2636.50691,417.680224 2616.08576,441.556802 2593.87327,474.768583 L2593.87327,474.768583 L2575.60172,501.293128 C2558.49452,501.113604 2545.28347,497.837307 2535.96856,491.464236 C2531.22153,488.143058 2527.5717,483.969144 2525.01906,478.942496 C2522.46641,473.915849 2521.19009,467.228612 2521.19009,458.880785 C2521.19009,450.532959 2524.6384,442.454418 2531.53502,434.645161 C2534.93854,430.785414 2539.21534,427.509116 2544.36541,424.816269 C2549.51548,422.123422 2554.5536,420.530154 2559.47975,420.036466 C2564.40591,419.542777 2566.86899,418.892006 2566.86899,418.084151 C2566.86899,417.007013 2565.88375,416.468443 2563.91329,416.468443 C2550.38876,416.468443 2538.16293,421.539972 2527.23583,431.683029 C2516.48785,441.646564 2511.11386,452.507714 2511.11386,464.26648 C2511.11386,476.025245 2516.75655,485.629734 2528.04192,493.079944 C2539.596,500.619916 2554.50881,504.659187 2572.78037,505.197756 C2554.32968,530.420757 2538.74512,547.206171 2526.02668,555.553997 C2508.29252,549.270687 2494.25298,546.129032 2483.90805,546.129032 C2473.56313,546.129032 2465.70367,547.385694 2460.32968,549.899018 C2457.64269,551.065919 2455.58266,552.502104 2454.1496,554.207574 C2452.71653,555.913043 2452,557.618513 2452,559.323983 C2452,561.029453 2452.58218,562.5554 2453.74655,563.901823 C2457.95617,568.569425 2467.2263,570.903226 2481.55693,570.903226 C2498.39543,570.903226 2513.89042,567.806452 2528.04192,561.612903 C2555.53883,569.870968 2577.52739,574 2594.00762,574 Z M2596,500 C2601.0219,493.204706 2606.08863,485.872941 2611.20021,478.004706 L2611.20021,478.004706 L2627.34202,452.790588 C2654.51408,408.263529 2682.35871,386 2710.87591,386 C2712.8488,386 2714.68717,386.357647 2716.39103,387.072941 C2722.13034,389.397647 2725,393.152941 2725,398.338824 C2725,410.051765 2718.22941,423.374118 2704.68822,438.305882 C2691.50574,452.969412 2675.22941,465.844706 2655.85923,476.931765 C2634.78519,489.091765 2614.83212,496.781176 2596,500 Z M2482.77824,568 C2477.06555,568 2472.7364,567.724771 2469.79079,567.174312 C2460.59693,565.431193 2456,563 2456,559.880734 C2456,555.293578 2465.1046,553 2483.31381,553 C2492.23989,553 2504.46862,555.110092 2520,559.330275 C2509.64575,565.110092 2497.23849,568 2482.77824,568 Z M2677.94522,571 C2681.84934,571 2685.86565,570.375061 2689.99414,569.125182 C2702.37962,565.196992 2713.91248,557.206696 2724.59271,545.154294 C2726.11846,547.832606 2728.5417,549.171761 2731.86245,549.171761 C2738.95268,549.171761 2747.11992,544.931101 2756.36415,536.449782 C2761.1209,531.807375 2763.49927,529.486172 2763.49927,529.486172 C2765.74301,527.254246 2767.76239,525.156235 2769.55738,523.19214 C2771.35238,521.228045 2772.83325,519.710335 2774,518.63901 L2774,518.63901 L2771.03826,516.362445 C2770.41001,516.987385 2769.37788,518.147986 2767.94189,519.84425 L2767.94189,519.84425 L2762.82614,525.468705 C2760.7619,527.611354 2758.49571,529.865599 2756.02759,532.231441 C2753.55947,534.597283 2751.04648,536.739932 2748.48861,538.659389 C2745.93073,540.578845 2743.37286,542.185832 2740.81499,543.480349 C2738.25712,544.774867 2735.56463,545.422125 2732.73751,545.422125 C2729.91039,545.422125 2728.1827,544.127608 2727.55445,541.538574 C2733.47794,534.217855 2738.05519,526.450752 2741.28618,518.237263 C2742.90168,514.219796 2744.1133,510.202329 2744.92105,506.184862 C2745.7288,502.167394 2745.99805,497.859777 2745.7288,493.262009 C2745.45955,488.664241 2743.59724,485.137797 2740.14187,482.682678 C2736.6865,480.227559 2732.58045,479 2727.8237,479 C2716.78447,479 2705.47599,482.883552 2693.89826,490.650655 C2688.78252,494.13246 2684.00334,498.082969 2679.56072,502.502183 C2675.1181,506.921397 2671.12424,511.720039 2667.57912,516.898108 C2664.034,522.076177 2661.13957,527.655992 2658.89582,533.637555 C2653.06208,548.90393 2653.78008,559.661815 2661.04982,565.911208 C2662.84481,567.518195 2665.13343,568.768074 2667.91568,569.660844 C2670.69792,570.553615 2674.04111,571 2677.94522,571 Z M2682.00068,567 C2679.40666,567 2677.39405,566.643586 2675.96286,565.930757 C2672.0271,563.792271 2670.05922,560.272678 2670.05922,555.371981 C2669.34363,546.818035 2675.1131,534.878154 2687.36763,519.552335 C2706.42029,495.850778 2721.22412,484 2731.77912,484 C2738.04056,484 2741.43963,488.588835 2741.97632,497.766506 C2742.24467,503.558239 2740.23206,510.99839 2735.93851,520.086957 C2734.59677,520.532475 2733.16558,521.289855 2731.64495,522.359098 C2725.9202,526.190553 2723.05783,531.893183 2723.05783,539.466989 L2723.05783,539.466989 L2723.05783,540.00161 C2717.60143,546.506173 2711.38472,552.253355 2704.40769,557.243156 C2695.28388,563.747719 2687.81487,567 2682.00068,567 Z M2761.31172,574 C2785.74403,574 2801.719,565.812576 2809.23663,549.437727 C2809.9526,549.616687 2810.66856,549.706167 2811.38453,549.706167 L2811.38453,549.706167 L2813.66667,549.706167 C2820.91581,549.706167 2830.76033,542.995163 2843.20023,529.573156 L2843.20023,529.573156 L2848.83845,523.130593 C2850.53887,521.251511 2851.92605,519.775091 2853,518.70133 L2853,518.70133 L2850.04664,516.419589 L2846.95904,520.446191 C2845.43762,522.235792 2843.67008,524.226723 2841.65643,526.418984 C2839.64278,528.611245 2837.42776,530.892987 2835.01138,533.264208 C2832.59499,535.635429 2830.15624,537.80532 2827.69511,539.773881 C2825.23398,541.742443 2822.83997,543.353083 2820.51308,544.605804 C2818.1862,545.858525 2816.19492,546.484885 2814.53925,546.484885 C2812.88358,546.484885 2811.51877,546.395405 2810.44482,546.216445 C2813.21919,538.700121 2813.62192,528.857316 2811.65301,516.688029 L2811.65301,516.688029 L2808.29693,494.407497 C2807.75995,491.096735 2807.53622,488.233374 2807.62571,485.817412 L2807.62571,485.817412 L2807.62571,484.206771 C2807.62571,483.669891 2807.71521,483.110641 2807.8942,482.529021 C2808.07319,481.9474 2808.45355,481.23156 2809.03527,480.381499 C2809.61699,479.531439 2811.22791,477.562878 2813.86803,474.475816 C2816.50815,471.388755 2817.87296,468.995163 2817.96246,467.295042 C2817.96246,466.042322 2817.44786,465.013301 2816.41866,464.207981 C2815.38946,463.40266 2814.11414,463 2812.59272,463 C2809.37088,463 2807.04399,466.489722 2805.61206,473.469166 C2802.7482,477.227328 2789.77133,492.886336 2766.68146,520.446191 C2765.697,521.698912 2765.29427,522.548972 2765.47327,522.996372 C2765.83125,523.622733 2766.54721,523.891173 2767.62116,523.801693 C2767.62116,523.801693 2768.04626,523.488513 2768.89647,522.862152 C2769.74668,522.235792 2771.06674,520.848851 2772.85666,518.70133 L2772.85666,518.70133 L2804.53811,479.777509 C2804.53811,480.314389 2804.49336,480.71705 2804.40387,480.98549 C2801.6295,488.680774 2799.97383,499.3289 2799.43686,512.929867 C2798.5419,533.152358 2792.67994,548.408706 2781.85097,558.698912 C2777.91316,562.457074 2773.90823,565.141475 2769.83618,566.752116 C2765.76413,568.362757 2761.82632,569.168077 2758.02275,569.168077 C2754.21919,569.168077 2750.57224,568.541717 2747.08191,567.288996 C2744.75502,566.483676 2742.74137,565.320435 2741.04096,563.799274 C2739.34054,562.278114 2738.49033,560.242443 2738.49033,557.692261 C2738.49033,555.14208 2739.47478,552.659008 2741.44369,550.243047 C2742.24915,549.258767 2743.07698,548.408706 2743.92719,547.692866 C2744.7774,546.977025 2745.47099,546.350665 2746.00796,545.813785 C2746.63443,546.171705 2747.46227,546.730955 2748.49147,547.491536 C2749.52067,548.252116 2750.59462,548.632406 2751.71331,548.632406 C2752.83201,548.632406 2753.97308,548.453446 2755.13652,548.095526 C2758.80584,546.932285 2760.77474,545.187424 2761.04323,542.860943 C2761.04323,539.460701 2759.23094,537.76058 2755.60637,537.76058 C2751.9818,537.76058 2747.88737,539.415961 2743.32309,542.726723 C2741.0857,544.337364 2739.13917,546.373035 2737.4835,548.833736 C2735.82783,551.294438 2735,554.269649 2735,557.759371 C2735,561.249093 2736.0292,564.112455 2738.0876,566.349456 C2742.92036,571.449819 2750.66174,574 2761.31172,574 Z M2841.80086,571 C2858.84428,571 2879.87944,556.147436 2904.90635,526.442308 L2904.90635,526.442308 L2911.90312,518.365385 L2908.94295,516.076923 L2901.94618,524.423077 C2899.16541,527.74359 2896.02583,531.288462 2892.52745,535.057692 C2889.02906,538.826923 2885.26157,542.61859 2881.22497,546.432692 C2877.18837,550.246795 2873.01722,553.679487 2868.71152,556.730769 C2864.40581,559.782051 2860.07768,562.294872 2855.72713,564.269231 C2851.37657,566.24359 2847.04844,567.185897 2842.74273,567.096154 C2838.43703,567.00641 2836.28418,565.615385 2836.28418,562.923077 C2836.28418,561.935897 2836.97937,559.871795 2838.36975,556.730769 C2839.76014,553.589744 2845.2544,545.24359 2854.85253,531.692308 L2854.85253,531.692308 L2910.55759,455.903846 L2948.63617,455.903846 C2950.87872,455.903846 2952,455.253205 2952,453.951923 C2952,452.650641 2950.74417,452 2948.23251,452 L2948.23251,452 L2913.51776,452 L2939.48654,417 C2933.29709,417.987179 2927.06279,417.987179 2920.78364,417 L2920.78364,417 L2895.89128,452 L2883.64693,452 C2880.23825,452 2878.53391,452.650641 2878.53391,453.951923 C2878.53391,455.253205 2879.87944,455.903846 2882.57051,455.903846 L2882.57051,455.903846 L2893.20022,455.903846 L2858.48547,504.769231 L2837.49516,535.057692 C2835.1629,538.647436 2833.30158,541.698718 2831.91119,544.211538 C2830.52081,546.724359 2829.46681,548.900641 2828.74919,550.740385 C2828.03158,552.580128 2827.56064,554.262821 2827.33638,555.788462 C2827.11213,557.314103 2827,559.24359 2827,561.576923 C2827,563.910256 2828.23341,566.064103 2830.70022,568.038462 C2833.16703,570.012821 2836.86724,571 2841.80086,571 Z" id="VoicemailsforLivesLost" fill="#FF0000" fill-rule="nonzero"></path>
    </g>
</svg>